<?xml version="1.0" encoding="UTF-8" standalone="no"?>
<!-- Created with Inkscape (http://www.inkscape.org/) -->

<svg
   width="297mm"
   height="210mm"
   viewBox="0 0 297 210"
   version="1.1"
   id="svg5"
   inkscape:version="1.1.2 (0a00cf5339, 2022-02-04)"
   sodipodi:docname="jp08.svg"
   xmlns:inkscape="http://www.inkscape.org/namespaces/inkscape"
   xmlns:sodipodi="http://sodipodi.sourceforge.net/DTD/sodipodi-0.dtd"
   xmlns="http://www.w3.org/2000/svg"
   xmlns:svg="http://www.w3.org/2000/svg">
  <sodipodi:namedview
     id="namedview7"
     pagecolor="#ffffff"
     bordercolor="#666666"
     borderopacity="1.0"
     inkscape:pageshadow="2"
     inkscape:pageopacity="0.0"
     inkscape:pagecheckerboard="0"
     inkscape:document-units="mm"
     showgrid="true"
     inkscape:zoom="0.5"
     inkscape:cx="820"
     inkscape:cy="407"
     inkscape:window-width="1920"
     inkscape:window-height="1011"
     inkscape:window-x="0"
     inkscape:window-y="0"
     inkscape:window-maximized="1"
     inkscape:current-layer="layer3"
     inkscape:snap-global="false">
    <inkscape:grid
       type="xygrid"
       id="grid19261" />
  </sodipodi:namedview>
  <defs
     id="defs2" />
  <g
     inkscape:groupmode="layer"
     id="layer3"
     inkscape:label="background"
     style="display:inline"
     sodipodi:insensitive="true">
    <rect
       style="display:inline;fill:#000000;fill-opacity:1;stroke:none;stroke-width:0.799999"
       id="rect101984"
       width="284.28696"
       height="193.87642"
       x="6.5699286"
       y="8.4798727"
       rx="12.127643"
       ry="13.390247" />
  </g>
  <g
     inkscape:groupmode="layer"
     id="layer2"
     inkscape:label="logo"
     style="display:inline"
     sodipodi:insensitive="true">
    <g
       id="g13754"
       transform="translate(-0.49296284)">
      <g
         id="g24"
         style="fill:#ffffff;fill-opacity:1;stroke-width:0.905369"
         transform="matrix(1.661537,0,0,1.661537,47.359649,53.607956)">
        <g
           id="g22"
           style="fill:#ffffff;fill-opacity:1;stroke-width:0.905369">
          <g
             id="g20"
             style="fill:#ffffff;fill-opacity:1;stroke-width:0.905369">
            <g
               id="g12"
               style="fill:#ffffff;fill-opacity:1;stroke-width:0.905369">
              <path
                 d="M 70.465141,1.4922274 V 17.974888 c 0.0012,0 0.0043,0.718538 0.718254,0.718538 h 1.964638 c 0.716385,-0.0046 0.713608,-0.718538 0.713608,-0.718538 V 1.4922274 c 0.0028,0 0,-0.7185372 -0.713608,-0.7185372 h -1.964638 c -0.717025,0 -0.717025,0.7185372 -0.718254,0.7185372 z"
                 id="path2"
                 style="fill:#ffffff;fill-opacity:1;stroke-width:0.905369"
                 inkscape:connector-curvature="0" />
              <path
                 d="m 104.43314,17.974888 0.001,-7.266249 c 0,-3.2518038 -2.8606,-5.245439 -4.948037,-5.245439 -2.07666,0 -3.842323,0.5398827 -5.200737,1.6400871 C 94.16407,7.2032456 93.824989,7.3069 93.824989,7.0107217 l -0.0062,-0.7497191 c 0,0 0,-0.7145247 -0.715156,-0.7145247 h -1.693764 c 0,0 -0.715157,0 -0.715157,0.7145247 l -0.0025,11.7138854 c 0.0025,0.718538 0.717621,0.718538 0.717621,0.718538 l 1.697487,-0.0015 c 0.711433,-0.0031 0.711433,-0.716991 0.707107,-0.716991 l 0.0025,-5.724886 c 0.0019,-1.581485 1.068741,-4.2844005 4.5803,-4.2844005 2.508243,0 2.908703,1.72646 2.908703,2.7430375 l 0.002,7.266249 c 0,0.718538 0.71703,0.713894 0.71703,0.713894 l 1.69562,0.0046 c 0,0 0.71576,0 0.71206,-0.718538 z"
                 id="path4"
                 style="fill:#ffffff;fill-opacity:1;stroke-width:0.905369"
                 inkscape:connector-curvature="0" />
              <path
                 d="m 75.73835,9.1722088 c -0.0049,0.024674 -0.0062,0.049348 -0.0062,0.073422"
                 id="path6"
                 style="fill:#ffffff;fill-opacity:1;stroke-width:0.905369"
                 inkscape:connector-curvature="0" />
              <path
                 d="m 113.37095,8.0306816 c 2.44562,0 4.41769,1.6795778 4.42476,4.2890454 0.005,2.689964 -1.97421,4.416141 -4.41983,4.416141 -2.4475,0 -4.31186,-1.919301 -4.31186,-4.450703 -0.003,-2.5039493 2.02573,-4.2544834 4.30693,-4.2544834 z m 4.08663,9.5428274 c 0.20794,-0.163839 0.42207,-0.02932 0.41834,0.347073 0,0.05431 0,0.772844 0.71702,0.772844 h 1.69531 c 0,0 0.71175,0 0.71175,-0.718538 V 1.4922274 c 0,-0.7185372 -0.71175,-0.714209 -0.71175,-0.714209 h -1.69531 c 0,0 -0.71702,-0.004328 -0.72195,0.714209 l 0.002,5.2056661 c -0.005,0.3763919 -0.20484,0.505352 -0.41219,0.347074 -4.61296,-3.5347137 -11.6247,0 -11.61203,5.2340365 0.0111,5.854764 6.92688,9.007842 11.60834,5.294505 z"
                 id="path8"
                 style="fill:#ffffff;fill-opacity:1;stroke-width:0.905369"
                 inkscape:connector-curvature="0" />
              <path
                 d="m 79.164764,13.581558 c 1.616333,-0.855205 5.607056,-0.771897 5.976052,-0.722549 0.186332,0.02499 0.455658,0.159194 0.452278,0.421442 -0.01236,3.450489 -4.724991,3.915117 -6.529518,2.727308 -0.376992,-0.248348 -0.615166,-0.69418 -0.630898,-1.090602 -0.01299,-0.586196 0.187882,-1.050509 0.732086,-1.335599 z m -2.099151,4.641363 c 2.213615,1.57684 6.330826,1.194603 8.205993,-0.445486 0.227684,-0.199314 0.491166,-0.03579 0.564591,0.197453 0.184494,0.576626 0.444878,0.713894 1.019669,0.718538 0.263168,0 1.172683,0 1.172683,0 0.709595,0 0.714203,-0.718538 0.709595,-0.718538 l 0.0037,-7.414352 c 9.15e-4,-4.0310928 -3.75898,-5.1016638 -6.642418,-5.1016638 -3.223404,0.00433 -5.330582,1.227901 -6.358597,3.7179494 -0.104256,0.2529917 0.196846,0.5568762 0.454132,0.5568762 l 2.199745,0.00743 c 0.376396,0 0.753418,-0.3190203 0.86573,-0.5047522 0.571976,-0.9576283 1.496315,-1.3142743 3.231423,-1.3142743 1.918991,0 2.424026,0.4263711 3.044464,1.3142743 0.399834,0.5695162 -0.139763,1.1637374 -0.447029,1.1791544 -4.621933,0.237575 -5.406181,0.405394 -6.665581,0.609323 -1.823044,0.286921 -3.216293,2.051672 -3.203346,3.892307 0,1.203513 0.563957,2.398713 1.845253,3.305764 z m -15.819317,0.93204 c 5.71162,0 8.103855,-3.704398 8.099239,-6.844807 C 69.342125,9.3048658 66.941864,5.4632 61.197548,5.4632 55.461857,5.45887 53.06374,9.2937764 53.06374,12.314795 c 0,3.196236 2.42279,6.840166 8.182556,6.840166 z m 0,-2.453024 c -3.339127,0 -4.868134,-2.474346 -4.868134,-4.371722 0,-1.894626 1.599965,-4.3970276 4.820618,-4.3970276 3.22002,0 4.831707,2.4869846 4.831707,4.3816076 0,1.917123 -1.576523,4.387142 -4.784191,4.387142 z m -21.906128,-5.3593 c -0.0015,1.665077 0.0031,5.452151 0.0031,6.627292 0,0.717336 -0.716991,0.713926 -0.716991,0.713926 h -1.602459 c 0,0 -0.718094,0.0096 -0.723183,-0.713926 l 0.0031,-16.4820298 c 0,-0.714209 0.713924,-0.714209 0.713924,-0.714209 h 10.393548 c 2.351387,0 5.032253,1.6209736 5.032253,4.9289169 0,1.6086211 -0.920918,3.0932102 -2.216236,3.998395 -0.104286,0.069725 -0.184342,0.2101212 -0.133919,0.2486639 0.886543,0.698507 0.89719,1.269256 1.209549,2.468155 0.562279,2.170744 0.629093,4.060126 1.483826,5.879153 0.06003,0.125261 -0.08716,0.386881 -0.281678,0.386881 l -2.070152,0.0049 c -0.679836,0 -1.051903,-0.322399 -1.180862,-0.718853 C 48.510461,15.6992 49.02289,13.497621 47.475526,11.34261 47.112245,10.836627 46.309484,10.628402 45.371568,10.628402 h -5.314689 c -0.0014,0 -0.713609,0 -0.716706,0.714208 z m 7.058624,-3.0916614 c 0,0.00306 2.788849,0.00771 2.788849,-2.5483685 0,-2.5545597 -2.788849,-2.5594883 -2.788849,-2.5594883 h -6.341919 c -0.713607,0 -0.713607,0.7188532 -0.713607,0.7188532 0,0 -0.0046,2.7951677 0,3.6732123 0,0.7188554 0.753414,0.7188554 0.713607,0.7188554 z"
                 id="path10"
                 style="fill:#ffffff;fill-opacity:1;stroke-width:0.905369"
                 inkscape:connector-curvature="0" />
            </g>
            <g
               id="g18"
               style="fill:#ffffff;fill-opacity:1;stroke-width:0.905369">
              <path
                 d="M 29.332743,8.6378555 H 11.789082 c -2.6012845,0 -4.4309573,1.9998295 -4.4309573,4.3479625 0,2.343207 1.9392042,4.396712 4.4309573,4.396712 2.568904,0 21.454136,0 21.454136,0 v 1.301325 c 0,0 -18.219139,0 -21.475709,0 -3.4562078,0 -5.7807451,-2.645231 -5.7807451,-5.68723 0,-3.0426303 2.3350248,-5.6743079 5.7714851,-5.6743079 4.605413,0 16.223793,0 16.223793,0 v 0 -1.7758393 H 5.986763 V 18.683855 H 4.5424223 V 4.2309709 H 29.332744 v 4.4068846 z"
                 id="path14"
                 style="fill:#ffffff;fill-opacity:1;stroke-width:0.905369"
                 inkscape:connector-curvature="0" />
              <path
                 d="M 10.43993,15.23801 H 33.243217 V 13.925252 H 11.789082 v -1.777672 0 c 0,0 12.795705,0 16.2286,0 3.436428,0 5.771298,-2.6298445 5.771298,-5.6733916 0,-3.0429153 -2.39518,-5.7004981 -5.85262,-5.7004981 -3.456932,0 -26.9363591,0 -26.9363591,0 V 18.683854 H 2.4460475 V 2.0910611 c 0,0 23.0428525,0 25.5359955,0 2.497915,0 4.446848,2.0519567 4.446848,4.3967118 0,2.3450708 -1.843887,4.3442691 -4.446848,4.3442691 -2.600685,0 -17.542112,0 -17.542112,0 v 4.405968 z"
                 id="path16"
                 style="fill:#ffffff;fill-opacity:1;stroke-width:0.905369"
                 inkscape:connector-curvature="0" />
            </g>
          </g>
        </g>
      </g>
      <path
         id="path2775"
         style="fill:#ffffff;stroke:none;stroke-width:0.0649999;stroke-linecap:butt;stroke-linejoin:miter;stroke-miterlimit:4;stroke-dasharray:none;stroke-opacity:1"
         d="m 79.263547,124.80671 v 21.47754 c 0,0.94261 -0.8291,2.03061 -1.85111,2.048 h -28.39125 v 7.60468 h 28.39125 c 4.86031,0.002 9.0748,-4.14959 8.96201,-9.65268 v -21.47754 z m 12.04704,0 v 31.13022 h 7.10878 v -11.7616 h 27.251403 c 3.43323,0.0453 8.8905,-3.63188 8.87001,-9.33439 v -0.69983 c 0.18629,-5.53082 -4.91027,-9.38631 -8.87001,-9.3344 h -27.251403 -2.20118 z m 78.542093,0 c -5.05587,-0.0453 -8.81914,4.95096 -8.59652,9.45845 v 12.39589 c -0.17656,5.80366 3.83728,9.44681 8.59652,9.27588 h 5.08056 14.04469 5.08043 c 4.75937,0.17075 8.77326,-3.47222 8.5967,-9.27588 v -12.39589 c 0.22271,-4.50749 -3.54065,-9.5037 -8.5967,-9.45845 h -5.08043 -14.04469 z m 46.68731,0 c -9.04389,0.0852 -10.92747,10.94245 -7.16344,15.56748 -3.76403,4.62499 -1.88045,15.48238 7.16344,15.5674 h 24.39824 c 8.25386,-0.0453 10.34771,-11.1191 6.78712,-15.5674 3.56072,-4.44829 1.46688,-15.52224 -6.78712,-15.56748 z m 0,7.60467 h 24.39824 c 0.64344,0.0362 1.93329,0.44207 1.91885,2.07848 -0.0127,1.63629 -1.29163,2.04715 -1.91885,2.08079 h -24.39824 c -0.46345,0.12638 -1.8752,-0.42304 -1.91453,-2.08079 -0.0381,-1.65788 1.26511,-2.07879 1.91453,-2.07848 z m -118.120623,0.002 h 27.251403 c 0.7603,-0.004 1.72045,0.74928 1.76122,1.72741 v 0.69983 c 3.4e-4,0.86841 -1.08797,1.71414 -1.76122,1.72972 H 98.419367 Z m 71.433313,0 h 5.08056 14.04469 5.08043 c 1.08496,0.0457 1.49207,0.96602 1.48792,1.85142 v 12.39593 c -0.0381,0.98849 -0.67664,1.66214 -1.48792,1.67121 h -5.08043 -14.04469 -5.08056 c -0.81128,-0.009 -1.44845,-0.68272 -1.48778,-1.67121 v -12.39598 c 0,-0.88539 0.40265,-1.80568 1.48778,-1.85142 z m -29.93594,4.15696 v 7.60463 h 16.00947 v -7.60463 z m 76.40884,7.59295 c 0.083,-0.004 0.15666,-10e-4 0.21424,0.0136 h 24.39824 c 0.62722,0.0317 1.90606,0.44433 1.91885,2.08079 0.0127,1.63638 -1.27541,2.04221 -1.91885,2.07848 h -24.39824 c -0.64941,3.2e-4 -1.9526,-0.42077 -1.91454,-2.07848 0.0338,-1.45057 1.11881,-2.05167 1.70013,-2.09483 z"
         sodipodi:nodetypes="cscccccccccccccccccccccccccccccccccccccccccccccccccccccccccccccccscccccccccccccccc" />
    </g>
    <path
       style="fill:#da6106;fill-opacity:1;stroke:#000000;stroke-width:0.264583px;stroke-linecap:butt;stroke-linejoin:miter;stroke-opacity:1"
       d="M 48.660516,103.08427 H 248.99577 v 1.85605 H 48.660516 Z"
       id="path13789"
       sodipodi:nodetypes="ccccc" />
  </g>
</svg>
