<?xml version="1.0" encoding="UTF-8" standalone="no"?>
<!-- Created with Inkscape (http://www.inkscape.org/) -->

<svg
   width="297mm"
   height="210mm"
   viewBox="0 0 297 210"
   version="1.1"
   id="svg5"
   inkscape:version="1.2.2 (b0a8486541, 2022-12-01)"
   sodipodi:docname="logo.svg"
   inkscape:export-filename="logo.png"
   inkscape:export-xdpi="14.51"
   inkscape:export-ydpi="14.51"
   xml:space="preserve"
   xmlns:inkscape="http://www.inkscape.org/namespaces/inkscape"
   xmlns:sodipodi="http://sodipodi.sourceforge.net/DTD/sodipodi-0.dtd"
   xmlns="http://www.w3.org/2000/svg"
   xmlns:svg="http://www.w3.org/2000/svg"><sodipodi:namedview
     id="namedview7"
     pagecolor="#ffffff"
     bordercolor="#666666"
     borderopacity="1.0"
     inkscape:pageshadow="2"
     inkscape:pageopacity="0.0"
     inkscape:pagecheckerboard="0"
     inkscape:document-units="mm"
     showgrid="true"
     inkscape:zoom="0.35355339"
     inkscape:cx="164.04877"
     inkscape:cy="436.99199"
     inkscape:window-width="1920"
     inkscape:window-height="1008"
     inkscape:window-x="0"
     inkscape:window-y="0"
     inkscape:window-maximized="1"
     inkscape:current-layer="layer3"
     inkscape:snap-global="false"
     inkscape:showpageshadow="2"
     inkscape:deskcolor="#d1d1d1"
     showguides="false"><inkscape:grid
       type="xygrid"
       id="grid19261" /></sodipodi:namedview><defs
     id="defs2" /><g
     inkscape:groupmode="layer"
     id="layer3"
     inkscape:label="background"
     style="display:inline"><rect
       style="display:inline;fill:#ffc534;fill-opacity:1;stroke:none;stroke-width:0.799999"
       id="rect101984"
       width="284.28696"
       height="193.87642"
       x="6.5699286"
       y="8.4798727"
       rx="12.127643"
       ry="13.390247" /></g><g
     inkscape:groupmode="layer"
     id="layer2"
     inkscape:label="logo"
     style="display:inline"><g
       id="g339"
       transform="translate(-1.2056466)"><path
         id="path1258"
         style="display:inline;fill:#2e3116;fill-opacity:1;stroke:#2e3116;stroke-width:0.11284;stroke-linecap:butt;stroke-linejoin:miter;stroke-miterlimit:4;stroke-dasharray:none;stroke-opacity:1"
         d="m 254.90858,34.882454 c 0,3.586034 0,7.172067 0,10.758098 0.51828,0 1.03653,0 1.55479,0 0,-3.705258 0,-7.410516 0,-11.115779 -0.51826,0 -1.03651,0 -1.55479,0 0,0.119208 0,0.238458 0,0.357681 z" /><path
         id="path1258-62-6"
         style="display:inline;fill:#2e3116;fill-opacity:1;stroke:#2e3116;stroke-width:0.11284;stroke-linecap:butt;stroke-linejoin:miter;stroke-miterlimit:4;stroke-dasharray:none;stroke-opacity:1"
         d="m 237.59083,35.889497 c -0.82978,0.961279 -1.65905,1.922987 -2.48926,2.883875 0.52091,0 1.04182,0 1.56271,0 0.0326,1.555682 -0.0668,3.118188 0.0515,4.669633 0.0892,1.020396 0.86442,1.92258 1.88737,2.090642 0.47793,0.106088 0.96975,0.112771 1.45712,0.106914 -0.006,-0.520018 -0.0131,-1.040037 -0.0187,-1.560059 -0.57261,-0.02981 -1.44962,0.171502 -1.71946,-0.500256 -0.21942,-0.979009 -0.0522,-2.000831 -0.10455,-2.996818 0,-0.603347 0,-1.206699 0,-1.810046 0.8029,0 1.6058,0 2.40871,0 0,-0.518703 0,-1.037397 0,-1.556101 -0.80291,0 -1.60581,0 -2.40871,0 0,-0.685447 0,-1.370885 0,-2.056326 -0.20949,0.242841 -0.41885,0.485706 -0.62828,0.728554 z" /><path
         id="path1258-62-6-1"
         style="display:inline;fill:#2e3116;fill-opacity:1;stroke:#2e3116;stroke-width:0.11284;stroke-linecap:butt;stroke-linejoin:miter;stroke-miterlimit:4;stroke-dasharray:none;stroke-opacity:1"
         d="m 189.18792,35.889497 c -0.82976,0.961279 -1.65902,1.922987 -2.48926,2.883875 0.52089,0 1.04184,0 1.56273,0 0.0326,1.555682 -0.0668,3.118188 0.0515,4.669633 0.0895,1.020396 0.86444,1.92258 1.88739,2.090642 0.47796,0.106088 0.96981,0.112771 1.45712,0.106914 -0.006,-0.520018 -0.0131,-1.040037 -0.0188,-1.560059 -0.5726,-0.02981 -1.44962,0.171502 -1.71947,-0.500256 -0.21942,-0.979009 -0.0522,-2.000831 -0.10456,-2.996818 0,-0.603347 0,-1.206699 0,-1.810046 0.80293,0 1.60583,0 2.40874,0 0,-0.518703 0,-1.037397 0,-1.556101 -0.80291,0 -1.60581,0 -2.40874,0 0,-0.685447 0,-1.370885 0,-2.056326 -0.20948,0.242841 -0.41881,0.485706 -0.62825,0.728554 z" /><path
         id="path3505"
         style="display:inline;fill:#2e3116;fill-opacity:1;stroke:#2e3116;stroke-width:0.11284;stroke-linecap:butt;stroke-linejoin:miter;stroke-miterlimit:4;stroke-dasharray:none;stroke-opacity:1"
         d="m 249.52756,37.223865 c -2.04172,0.06541 -3.94775,1.725246 -4.10473,3.795893 -0.21254,2.047036 1.28654,4.075676 3.29635,4.497138 2.05595,0.534041 4.42209,-0.633894 5.13134,-2.662102 0.75168,-1.855635 -0.14509,-4.128354 -1.89366,-5.062097 -0.73057,-0.420467 -1.58841,-0.614034 -2.4293,-0.568832 z m 0.53189,1.528389 c 1.5212,0.09096 2.7974,1.620148 2.46563,3.139568 -0.22682,1.526522 -1.88867,2.506731 -3.35488,2.180975 -1.51288,-0.230101 -2.61804,-1.896396 -2.13546,-3.37177 0.36019,-1.285849 1.72217,-2.095575 3.02471,-1.948773 z" /><path
         id="path9879"
         style="display:inline;fill:#2e3116;fill-opacity:1;stroke:#2e3116;stroke-width:0.11284;stroke-linecap:butt;stroke-linejoin:miter;stroke-miterlimit:4;stroke-dasharray:none;stroke-opacity:1"
         d="m 264.03667,37.223865 c -2.04207,0.06468 -3.94807,1.725092 -4.10472,3.795893 -0.21357,2.046845 1.28669,4.075271 3.29634,4.497138 1.31896,0.332034 2.74258,-0.01558 3.82819,-0.816073 -0.27125,-0.417527 -0.5417,-0.835535 -0.8117,-1.253861 -1.09904,0.830016 -2.76393,0.953746 -3.8445,0.0275 -0.50065,-0.279914 0.30656,-0.47505 0.50399,-0.7037 1.7001,-1.164609 3.39885,-2.331241 5.09987,-3.494548 -0.7245,-1.01772 -1.76414,-1.954591 -3.07234,-2.024086 -0.2965,-0.03507 -0.59699,-0.03919 -0.89513,-0.0283 z m 0.46987,1.521793 c 0.37831,0.03216 0.75266,0.129608 1.0915,0.302242 -1.37528,0.940175 -2.75055,1.880344 -4.12585,2.820522 -0.30762,-1.563143 1.0597,-3.094849 2.61895,-3.121771 0.13871,-0.01276 0.27673,-0.0069 0.4154,-6.73e-4 z" /><path
         id="path9879-3"
         style="display:inline;fill:#2e3116;fill-opacity:1;stroke:#2e3116;stroke-width:0.11284;stroke-linecap:butt;stroke-linejoin:miter;stroke-miterlimit:4;stroke-dasharray:none;stroke-opacity:1"
         d="m 196.78633,37.223865 c -2.0429,0.06534 -3.94865,1.727133 -4.10473,3.798536 -0.21128,2.046575 1.28907,4.072506 3.2977,4.494495 1.31895,0.332034 2.74257,-0.01558 3.82818,-0.816073 -0.27124,-0.417527 -0.54173,-0.835535 -0.8117,-1.253861 -1.0881,0.820203 -2.72668,0.952138 -3.81018,0.05649 -0.53716,-0.27146 0.18376,-0.47375 0.41385,-0.693264 1.71853,-1.178446 3.43719,-2.356747 5.15567,-3.535283 -0.72613,-1.016153 -1.76402,-1.953152 -3.07235,-2.022832 -0.2969,-0.0352 -0.59786,-0.03906 -0.89644,-0.02823 z m 0.46989,1.521793 c 0.3789,0.03036 0.75473,0.130509 1.09283,0.302242 -1.3753,0.940175 -2.75058,1.880344 -4.12585,2.820522 -0.31368,-1.589296 1.10295,-3.134103 2.6864,-3.12523 0.11543,-0.0107 0.23088,3.3e-4 0.34662,0.0028 z" /><path
         id="path3505-8"
         style="display:inline;fill:#2e3116;fill-opacity:1;stroke:#2e3116;stroke-width:0.11284;stroke-linecap:butt;stroke-linejoin:miter;stroke-miterlimit:4;stroke-dasharray:none;stroke-opacity:1"
         d="m 275.1353,34.882454 c 0,1.106475 0,2.212948 0,3.319423 -1.74316,-1.477184 -4.61073,-1.252701 -6.10391,0.476158 -1.35475,1.427116 -1.37532,3.818177 -0.13177,5.319839 1.3948,1.847724 4.30466,2.179323 6.11087,0.75084 1.20345,-0.871877 1.80511,-2.394819 1.68092,-3.857771 0,-2.12162 0,-4.243233 0,-6.364845 -0.51869,4.13e-4 -1.03741,-0.002 -1.55609,-0.0013 0,0.119208 0,0.238458 0,0.357681 z m -2.47737,3.872442 c 1.266,0.05954 2.41904,1.089676 2.46681,2.384964 0.20057,1.627469 -1.3292,3.125332 -2.94225,2.978887 -1.62355,-0.06468 -3.06263,-1.733271 -2.59886,-3.358489 0.27813,-1.338274 1.6897,-2.179265 3.00636,-2.008815 l 0.0675,0.0034 z" /><path
         id="path3505-7"
         style="display:inline;fill:#2e3116;fill-opacity:1;stroke:#2e3116;stroke-width:0.11284;stroke-linecap:butt;stroke-linejoin:miter;stroke-miterlimit:4;stroke-dasharray:none;stroke-opacity:1"
         d="m 223.5938,37.223865 c -2.04279,0.06581 -3.94854,1.727051 -4.10472,3.798536 -0.21128,2.046548 1.28892,4.073249 3.29762,4.494709 2.05567,0.533152 4.42166,-0.633554 5.13008,-2.662316 0.76184,-1.878476 -0.16837,-4.177528 -1.95188,-5.096419 -0.71918,-0.395433 -1.5519,-0.578839 -2.3711,-0.53451 z m 0.53193,1.528389 c 1.52777,0.09091 2.80087,1.629216 2.46541,3.152741 -0.23853,1.518966 -1.89171,2.492673 -3.35461,2.167282 -1.51291,-0.229311 -2.61462,-1.893443 -2.13634,-3.368472 0.36305,-1.287303 1.72005,-2.097346 3.02554,-1.951551 z" /><path
         id="path3505-9"
         style="display:inline;fill:#2e3116;fill-opacity:1;stroke:#2e3116;stroke-width:0.11284;stroke-linecap:butt;stroke-linejoin:miter;stroke-miterlimit:4;stroke-dasharray:none;stroke-opacity:1"
         d="m 154.5457,37.223865 c -2.04172,0.06541 -3.94772,1.725246 -4.10473,3.795893 -0.21239,2.047459 1.28757,4.07592 3.29762,4.497352 2.05571,0.533644 4.42116,-0.634271 5.13008,-2.662316 0.75149,-1.855439 -0.14461,-4.128752 -1.89368,-5.062097 -0.73056,-0.420467 -1.58839,-0.614034 -2.42929,-0.568832 z m 0.5319,1.528389 c 1.52118,0.09096 2.79738,1.620148 2.46564,3.139568 -0.22712,1.534006 -1.90098,2.512176 -3.37106,2.178107 -1.50524,-0.238715 -2.5972,-1.897075 -2.12011,-3.366124 0.35941,-1.28602 1.72323,-2.099583 3.02553,-1.951551 z" /><path
         id="path1258-6"
         style="display:inline;fill:#2e3116;fill-opacity:1;stroke:#2e3116;stroke-width:0.11284;stroke-linecap:butt;stroke-linejoin:miter;stroke-miterlimit:4;stroke-dasharray:none;stroke-opacity:1"
         d="m 257.51661,34.882454 c 0,3.586034 0,7.172067 0,10.758098 0.5187,0 1.03739,0 1.5561,0 0,-3.705258 0,-7.410516 0,-11.115779 -0.51871,0 -1.0374,0 -1.5561,0 0,0.119208 0,0.238458 0,0.357681 z" /><path
         id="path1258-6-5"
         style="display:inline;fill:#2e3116;fill-opacity:1;stroke:#2e3116;stroke-width:0.11284;stroke-linecap:butt;stroke-linejoin:miter;stroke-miterlimit:4;stroke-dasharray:none;stroke-opacity:1"
         d="m 244.34977,37.119603 c -1.03592,0.02115 -2.13825,0.590374 -2.41794,1.652452 -0.324,1.209114 -0.10944,2.479347 -0.17156,3.714846 0,1.051216 0,2.102434 0,3.153651 0.51823,0 1.0365,0 1.55476,0 0.0188,-2.039656 -0.0358,-4.082299 0.0264,-6.120145 -0.009,-0.495819 0.40224,-0.872363 0.89219,-0.846858 0.28082,-0.07302 0.73846,0.08599 0.90618,-0.076 0.006,-0.497061 0.009,-0.994119 0.0151,-1.491169 -0.26897,-0.0013 -0.53778,-0.0028 -0.80641,0.01332 z" /><path
         id="path1258-6-5-2"
         style="display:inline;fill:#2e3116;fill-opacity:1;stroke:#2e3116;stroke-width:0.11284;stroke-linecap:butt;stroke-linejoin:miter;stroke-miterlimit:4;stroke-dasharray:none;stroke-opacity:1"
         d="m 203.79081,37.119603 c -1.03553,0.02166 -2.13758,0.590205 -2.41669,1.652452 -0.324,1.209114 -0.10906,2.479347 -0.17156,3.714846 0,1.051216 0,2.102434 0,3.153651 0.51825,0 1.0365,0 1.55478,0 0.0188,-2.039656 -0.0358,-4.082299 0.0264,-6.120145 -0.0151,-0.5017 0.4047,-0.869712 0.8922,-0.846914 0.30088,-0.02905 0.60374,-0.0062 0.90543,-0.0084 0.007,-0.519582 0.0131,-1.039162 0.0169,-1.558746 -0.26938,-0.0013 -0.53867,-0.0028 -0.80775,0.01333 z" /><path
         id="path1258-6-5-7"
         style="display:inline;fill:#2e3116;fill-opacity:1;stroke:#2e3116;stroke-width:0.11284;stroke-linecap:butt;stroke-linejoin:miter;stroke-miterlimit:4;stroke-dasharray:none;stroke-opacity:1"
         d="m 147.08328,34.299081 c -2.53024,0.167899 -4.97984,2.02892 -5.43193,4.591367 -0.4258,2.019167 0.35482,4.25901 2.05055,5.470505 1.84404,1.37874 4.55132,1.774156 6.56353,0.520683 -0.27662,-0.43634 -0.5544,-0.871937 -0.8315,-1.307966 -2.30454,1.413459 -5.80461,-0.08508 -6.26941,-2.775374 -0.37053,-1.803424 0.70982,-3.670314 2.33225,-4.457409 1.19958,-0.643096 2.78616,-0.769911 3.91207,0.100303 0.28334,-0.433942 0.56635,-0.868079 0.84866,-1.302691 -0.92485,-0.648946 -2.05105,-0.935349 -3.17422,-0.839421 z" /><path
         id="path1258-6-5-7-5"
         style="display:inline;fill:#2e3116;fill-opacity:1;stroke:#2e3116;stroke-width:0.11284;stroke-linecap:butt;stroke-linejoin:miter;stroke-miterlimit:4;stroke-dasharray:none;stroke-opacity:1"
         d="m 215.93604,34.299081 c -2.52982,0.167842 -4.98135,2.028732 -5.43191,4.591367 -0.43609,2.044608 0.37956,4.309734 2.10855,5.516045 1.84406,1.337608 4.51419,1.71733 6.50553,0.475143 -0.27662,-0.43634 -0.5544,-0.871937 -0.83152,-1.307966 -2.30764,1.415255 -5.81286,-0.08869 -6.27087,-2.784583 -0.37217,-1.82444 0.74229,-3.705611 2.39214,-4.477202 1.18896,-0.619786 2.74668,-0.726097 3.85365,0.129306 0.28333,-0.433942 0.56636,-0.868078 0.84867,-1.302687 -0.92484,-0.64895 -2.05106,-0.935351 -3.17424,-0.83943 z" /><path
         id="path1258-6-56"
         style="display:inline;fill:#2e3116;fill-opacity:1;stroke:#2e3116;stroke-width:0.11284;stroke-linecap:butt;stroke-linejoin:miter;stroke-miterlimit:4;stroke-dasharray:none;stroke-opacity:1"
         d="m 231.5512,37.233109 c -1.62166,0.122982 -2.95136,1.707784 -2.76639,3.32919 0,1.692755 0,3.3855 0,5.078253 0.51912,0 1.03826,0 1.55742,0 0.0131,-1.89034 -0.0255,-3.785127 0.0169,-5.672715 0.27414,-0.997441 1.60358,-1.57144 2.44701,-0.880336 0.48971,0.34872 0.73075,0.95161 0.63223,1.543693 0,1.669783 0,3.339574 0,5.009358 0.51867,0 1.0374,0 1.55607,0 -0.0151,-1.954935 0.0308,-3.913263 -0.0229,-5.866172 -0.24132,-1.585529 -1.84523,-2.731496 -3.42237,-2.541271 z" /><path
         id="path1258-6-56-3"
         style="display:inline;fill:#2e3116;fill-opacity:1;stroke:#2e3116;stroke-width:0.11284;stroke-linecap:butt;stroke-linejoin:miter;stroke-miterlimit:4;stroke-dasharray:none;stroke-opacity:1"
         d="m 180.20496,37.574944 c 0.0208,1.837659 -0.0411,3.680222 0.0302,5.514906 0.25403,1.630183 1.96842,2.835988 3.59019,2.503033 1.54289,-0.211242 2.78992,-1.731171 2.58961,-3.297359 0,-1.692753 0,-3.385498 0,-5.078253 -0.51827,0 -1.03653,0 -1.55479,0 -0.0169,1.901105 0.0338,3.808445 -0.025,5.705713 -0.2694,0.967544 -1.53787,1.513594 -2.37188,0.877479 -0.52409,-0.340701 -0.81297,-0.962153 -0.70205,-1.58307 0,-1.66671 0,-3.33342 0,-5.000122 -0.51872,0 -1.03741,0 -1.55612,0 0,0.119209 0,0.238459 0,0.357673 z" /><path
         id="path1258-6-56-9"
         style="display:inline;fill:#2e3116;fill-opacity:1;stroke:#2e3116;stroke-width:0.11284;stroke-linecap:butt;stroke-linejoin:miter;stroke-miterlimit:4;stroke-dasharray:none;stroke-opacity:1"
         d="m 162.77761,37.217271 c -1.71681,-0.05482 -3.26188,1.560304 -3.08714,3.277452 0,1.715277 0,3.430552 0,5.145829 0.51827,0 1.03654,0 1.55479,0 0.0122,-1.893846 -0.0252,-3.792145 0.0184,-5.683276 0.28106,-1.022385 1.67655,-1.571757 2.50189,-0.825628 0.49308,0.362182 0.66365,0.979889 0.57863,1.565803 0,1.647701 0,3.295401 0,4.943101 0.51871,0 1.03741,0 1.55611,0 0.0156,-1.896726 -0.0329,-3.800993 0.0242,-5.693035 0.28993,-1.010077 1.66879,-1.558919 2.49056,-0.815682 0.49088,0.362333 0.66987,0.980804 0.58142,1.568252 0,1.646822 0,3.293642 0,4.940465 0.51872,0 1.03741,0 1.55612,0 -0.0151,-1.954502 0.0308,-3.912371 -0.0224,-5.864861 -0.24663,-1.694436 -2.08225,-2.872753 -3.73397,-2.496394 -0.64488,0.126905 -1.2417,0.474071 -1.67357,0.968777 -0.41193,-0.457472 -0.96158,-0.791792 -1.56137,-0.934454 0.38301,-0.289448 -0.60312,-0.04588 -0.78401,-0.09637 z" /><path
         id="path3505-8-2"
         style="display:inline;fill:#2e3116;fill-opacity:1;stroke:#2e3116;stroke-width:0.11284;stroke-linecap:butt;stroke-linejoin:miter;stroke-miterlimit:4;stroke-dasharray:none;stroke-opacity:1"
         d="m 175.17895,37.221232 c -2.04237,0.04921 -3.92527,1.705773 -4.12454,3.758933 -0.0617,2.44842 -0.009,4.901405 -0.0262,7.351563 0.5187,-4.21e-4 1.0374,0.002 1.55611,0.0013 0,-1.225707 0,-2.451405 0,-3.677105 1.74368,1.476598 4.61212,1.253087 6.10476,-0.477921 1.35354,-1.426895 1.3745,-3.817129 0.13084,-5.318075 -0.85063,-1.101897 -2.25817,-1.706131 -3.6409,-1.638718 z m 0.48836,1.525744 c 1.571,0.143967 2.91956,1.771254 2.46868,3.350637 -0.27936,1.33566 -1.68837,2.181 -3.00525,2.007606 -1.2559,-0.03048 -2.44596,-1.013978 -2.52517,-2.303217 -0.25292,-1.734023 1.34952,-3.263592 3.06174,-3.055026 z" /><path
         id="path2700-2"
         style="display:inline;fill:#2e3116;fill-opacity:1;stroke:#999999;stroke-width:0.127862;stroke-dasharray:none"
         d="m 23.138173,26.086593 v 4.21708 h 10.221853 v 15.388451 h 4.973035 V 30.303673 h 10.22186 v -4.21708 h -10.22186 -4.973035 z" /><path
         id="path2700-9-7"
         style="display:inline;fill:#2e3116;fill-opacity:1;stroke:#999999;stroke-width:0.127862;stroke-dasharray:none"
         d="m 68.901798,26.077502 v 0.01314 h -16.94151 v 4.217081 h 14.365307 c 0.472861,0.01314 0.923903,0.20643 1.260078,0.54471 0.338683,0.340827 0.535154,0.800329 0.547077,1.282363 v 7.51494 c -0.01183,0.482032 -0.208394,0.941536 -0.547077,1.282364 -0.336169,0.338191 -0.787217,0.53509 -1.260078,0.546991 h -9.394509 v -7.183554 h -4.970798 v 7.183554 4.217081 0.01314 h 4.970798 v -0.01314 h 11.970712 v 0.01314 c 1.112537,0.0088 2.181873,-0.435696 2.970819,-1.230186 0.789255,-0.793917 1.233125,-1.873892 1.233171,-3.00051 V 30.307245 c -6e-5,-1.126575 -0.44393,-2.206638 -1.233171,-3.000555 -0.789307,-0.79361 -1.858603,-1.235589 -2.970819,-1.227903 z" /><path
         id="path2700-7-2-0"
         style="display:inline;fill:#2e3116;fill-opacity:1;stroke:#2e3116;stroke-width:0.127862;stroke-dasharray:none;stroke-opacity:1"
         d="m 108.62821,26.077502 v 0.01314 H 91.686709 v 4.217081 h 14.365301 c 0.47287,0.01314 0.92391,0.20643 1.26008,0.54471 0.33868,0.340827 0.53515,0.800329 0.54708,1.282363 v 1.93604 H 96.480375 v 3.647382 h 11.378795 v 1.931518 c -0.0118,0.482032 -0.2084,0.941536 -0.54708,1.282364 -0.33617,0.338191 -0.78721,0.53509 -1.26008,0.546991 H 91.686709 v 4.217081 h 16.941501 v 0.01314 c 1.11255,0.0088 2.18188,-0.435696 2.97083,-1.230186 0.78925,-0.793917 1.23313,-1.873892 1.23317,-3.00051 V 30.307245 c -6e-5,-1.126575 -0.44393,-2.206638 -1.23317,-3.000555 -0.78931,-0.79361 -1.85861,-1.235589 -2.97083,-1.227903 z" /><rect
         style="display:inline;fill:#2e3116;fill-opacity:1;stroke:#999999;stroke-width:0.127862;stroke-dasharray:none"
         id="rect3524-9"
         width="11.770181"
         height="3.6463532"
         x="76.511154"
         y="34.069592" /></g><g
       id="g18632"
       transform="matrix(4.2285175,0,0,4.2285175,-471.51506,-306.93154)"><ellipse
         style="display:inline;fill:#2e3116;fill-opacity:1;stroke:none;stroke-width:0.0999998;stroke-dasharray:none;stroke-opacity:1"
         id="path12392-2"
         cx="143.75056"
         cy="99.94912"
         rx="0.90950531"
         ry="2.66237" /><ellipse
         style="display:inline;fill:#2e3116;fill-opacity:1;stroke:none;stroke-width:0.0999998;stroke-dasharray:none;stroke-opacity:1"
         id="path12392-3-6"
         cx="149.67062"
         cy="99.94912"
         rx="0.90950531"
         ry="2.66237" /><circle
         style="display:inline;fill:none;fill-opacity:1;stroke:#2e3116;stroke-width:0.5;stroke-dasharray:none;stroke-opacity:1"
         id="path12555-1"
         cx="146.67752"
         cy="103.27294"
         r="11.691276" /><path
         id="rect12663-6-8"
         style="display:inline;fill:#2e3116;fill-opacity:1;stroke:none;stroke-width:0.0999999;stroke-dasharray:none;stroke-opacity:1"
         d="m 154.41532,105.24326 c 0,0 0.25006,0.0732 0.44617,0.11976 0.0428,0.0101 0.0782,-0.0464 0.1025,-0.083 0.0709,-0.10696 0.11353,-0.18807 0.10653,-0.31622 -0.003,-0.0602 -0.0102,-0.15096 -0.0682,-0.16746 l -3e-5,6e-5 c -0.54305,-0.15457 -0.96614,-0.32243 -1.44244,-0.43409 -0.0468,-0.011 -0.0952,0.0343 -0.12484,0.0722 -0.0767,0.0981 -0.1054,0.23455 -0.1034,0.35909 8e-4,0.0503 -8e-4,0.12541 0.0461,0.14361 0.12421,0.0482 0.43377,0.13217 0.43377,0.13217 -1.24513,3.24131 -3.38857,5.11706 -7.01882,5.17396 -3.63025,-0.0569 -5.77369,-1.93265 -7.01882,-5.17396 0,0 0.30956,-0.084 0.43377,-0.13217 0.0469,-0.0182 0.0453,-0.0933 0.0461,-0.14361 0.002,-0.12454 -0.0267,-0.26094 -0.1034,-0.35909 -0.0296,-0.0379 -0.078,-0.0832 -0.12484,-0.0722 -0.4763,0.11166 -0.89939,0.27952 -1.44244,0.43409 l -3e-5,-6e-5 c -0.058,0.0165 -0.065,0.10727 -0.0682,0.16746 -0.007,0.12815 0.0356,0.20926 0.10653,0.31622 0.0243,0.0366 0.0597,0.0931 0.1025,0.083 0.19611,-0.0466 0.44617,-0.11976 0.44617,-0.11976 1.69559,4.19121 3.90703,5.59334 7.62266,5.62846 3.71563,-0.0351 5.92707,-1.43725 7.62266,-5.62846 z"
         sodipodi:nodetypes="cssssssssscccsssssssssccc"
         inkscape:transform-center-x="1.5104179"
         inkscape:transform-center-y="6.1276287" /></g></g></svg>
