<?xml version="1.0" encoding="UTF-8" standalone="no"?>
<!-- Created with Inkscape (http://www.inkscape.org/) -->

<svg
   width="297mm"
   height="210mm"
   viewBox="0 0 297 210"
   version="1.1"
   id="svg5"
   inkscape:version="1.1.2 (0a00cf5339, 2022-02-04)"
   sodipodi:docname="jx03.svg"
   xmlns:inkscape="http://www.inkscape.org/namespaces/inkscape"
   xmlns:sodipodi="http://sodipodi.sourceforge.net/DTD/sodipodi-0.dtd"
   xmlns="http://www.w3.org/2000/svg"
   xmlns:svg="http://www.w3.org/2000/svg">
  <sodipodi:namedview
     id="namedview7"
     pagecolor="#ffffff"
     bordercolor="#666666"
     borderopacity="1.0"
     inkscape:pageshadow="2"
     inkscape:pageopacity="0.0"
     inkscape:pagecheckerboard="0"
     inkscape:document-units="mm"
     showgrid="true"
     inkscape:zoom="0.35355339"
     inkscape:cx="1069.1455"
     inkscape:cy="561.44278"
     inkscape:window-width="1920"
     inkscape:window-height="1011"
     inkscape:window-x="0"
     inkscape:window-y="0"
     inkscape:window-maximized="1"
     inkscape:current-layer="layer3"
     inkscape:snap-global="false">
    <inkscape:grid
       type="xygrid"
       id="grid19261" />
  </sodipodi:namedview>
  <defs
     id="defs2" />
  <g
     inkscape:groupmode="layer"
     id="layer3"
     inkscape:label="background"
     style="display:inline"
     sodipodi:insensitive="true">
    <rect
       style="display:inline;fill:#000000;fill-opacity:1;stroke:none;stroke-width:0.799999"
       id="rect101984"
       width="284.28696"
       height="193.87642"
       x="6.5699286"
       y="8.4798727"
       rx="12.127643"
       ry="13.390247" />
  </g>
  <g
     inkscape:groupmode="layer"
     id="layer2"
     inkscape:label="logo"
     style="display:inline"
     sodipodi:insensitive="true">
    <g
       id="g24"
       style="fill:#ffffff;fill-opacity:1;stroke-width:0.905369"
       transform="matrix(1.661537,0,0,1.661537,46.866686,53.607956)">
      <g
         id="g22"
         style="fill:#ffffff;fill-opacity:1;stroke-width:0.905369">
        <g
           id="g20"
           style="fill:#ffffff;fill-opacity:1;stroke-width:0.905369">
          <g
             id="g12"
             style="fill:#ffffff;fill-opacity:1;stroke-width:0.905369">
            <path
               d="M 70.465141,1.4922274 V 17.974888 c 0.0012,0 0.0043,0.718538 0.718254,0.718538 h 1.964638 c 0.716385,-0.0046 0.713608,-0.718538 0.713608,-0.718538 V 1.4922274 c 0.0028,0 0,-0.7185372 -0.713608,-0.7185372 h -1.964638 c -0.717025,0 -0.717025,0.7185372 -0.718254,0.7185372 z"
               id="path2"
               style="fill:#ffffff;fill-opacity:1;stroke-width:0.905369"
               inkscape:connector-curvature="0" />
            <path
               d="m 104.43314,17.974888 0.001,-7.266249 c 0,-3.2518038 -2.8606,-5.245439 -4.948037,-5.245439 -2.07666,0 -3.842323,0.5398827 -5.200737,1.6400871 C 94.16407,7.2032456 93.824989,7.3069 93.824989,7.0107217 l -0.0062,-0.7497191 c 0,0 0,-0.7145247 -0.715156,-0.7145247 h -1.693764 c 0,0 -0.715157,0 -0.715157,0.7145247 l -0.0025,11.7138854 c 0.0025,0.718538 0.717621,0.718538 0.717621,0.718538 l 1.697487,-0.0015 c 0.711433,-0.0031 0.711433,-0.716991 0.707107,-0.716991 l 0.0025,-5.724886 c 0.0019,-1.581485 1.068741,-4.2844005 4.5803,-4.2844005 2.508243,0 2.908703,1.72646 2.908703,2.7430375 l 0.002,7.266249 c 0,0.718538 0.71703,0.713894 0.71703,0.713894 l 1.69562,0.0046 c 0,0 0.71576,0 0.71206,-0.718538 z"
               id="path4"
               style="fill:#ffffff;fill-opacity:1;stroke-width:0.905369"
               inkscape:connector-curvature="0" />
            <path
               d="m 75.73835,9.1722088 c -0.0049,0.024674 -0.0062,0.049348 -0.0062,0.073422"
               id="path6"
               style="fill:#ffffff;fill-opacity:1;stroke-width:0.905369"
               inkscape:connector-curvature="0" />
            <path
               d="m 113.37095,8.0306816 c 2.44562,0 4.41769,1.6795778 4.42476,4.2890454 0.005,2.689964 -1.97421,4.416141 -4.41983,4.416141 -2.4475,0 -4.31186,-1.919301 -4.31186,-4.450703 -0.003,-2.5039493 2.02573,-4.2544834 4.30693,-4.2544834 z m 4.08663,9.5428274 c 0.20794,-0.163839 0.42207,-0.02932 0.41834,0.347073 0,0.05431 0,0.772844 0.71702,0.772844 h 1.69531 c 0,0 0.71175,0 0.71175,-0.718538 V 1.4922274 c 0,-0.7185372 -0.71175,-0.714209 -0.71175,-0.714209 h -1.69531 c 0,0 -0.71702,-0.004328 -0.72195,0.714209 l 0.002,5.2056661 c -0.005,0.3763919 -0.20484,0.505352 -0.41219,0.347074 -4.61296,-3.5347137 -11.6247,0 -11.61203,5.2340365 0.0111,5.854764 6.92688,9.007842 11.60834,5.294505 z"
               id="path8"
               style="fill:#ffffff;fill-opacity:1;stroke-width:0.905369"
               inkscape:connector-curvature="0" />
            <path
               d="m 79.164764,13.581558 c 1.616333,-0.855205 5.607056,-0.771897 5.976052,-0.722549 0.186332,0.02499 0.455658,0.159194 0.452278,0.421442 -0.01236,3.450489 -4.724991,3.915117 -6.529518,2.727308 -0.376992,-0.248348 -0.615166,-0.69418 -0.630898,-1.090602 -0.01299,-0.586196 0.187882,-1.050509 0.732086,-1.335599 z m -2.099151,4.641363 c 2.213615,1.57684 6.330826,1.194603 8.205993,-0.445486 0.227684,-0.199314 0.491166,-0.03579 0.564591,0.197453 0.184494,0.576626 0.444878,0.713894 1.019669,0.718538 0.263168,0 1.172683,0 1.172683,0 0.709595,0 0.714203,-0.718538 0.709595,-0.718538 l 0.0037,-7.414352 c 9.15e-4,-4.0310928 -3.75898,-5.1016638 -6.642418,-5.1016638 -3.223404,0.00433 -5.330582,1.227901 -6.358597,3.7179494 -0.104256,0.2529917 0.196846,0.5568762 0.454132,0.5568762 l 2.199745,0.00743 c 0.376396,0 0.753418,-0.3190203 0.86573,-0.5047522 0.571976,-0.9576283 1.496315,-1.3142743 3.231423,-1.3142743 1.918991,0 2.424026,0.4263711 3.044464,1.3142743 0.399834,0.5695162 -0.139763,1.1637374 -0.447029,1.1791544 -4.621933,0.237575 -5.406181,0.405394 -6.665581,0.609323 -1.823044,0.286921 -3.216293,2.051672 -3.203346,3.892307 0,1.203513 0.563957,2.398713 1.845253,3.305764 z m -15.819317,0.93204 c 5.71162,0 8.103855,-3.704398 8.099239,-6.844807 C 69.342125,9.3048658 66.941864,5.4632 61.197548,5.4632 55.461857,5.45887 53.06374,9.2937764 53.06374,12.314795 c 0,3.196236 2.42279,6.840166 8.182556,6.840166 z m 0,-2.453024 c -3.339127,0 -4.868134,-2.474346 -4.868134,-4.371722 0,-1.894626 1.599965,-4.3970276 4.820618,-4.3970276 3.22002,0 4.831707,2.4869846 4.831707,4.3816076 0,1.917123 -1.576523,4.387142 -4.784191,4.387142 z m -21.906128,-5.3593 c -0.0015,1.665077 0.0031,5.452151 0.0031,6.627292 0,0.717336 -0.716991,0.713926 -0.716991,0.713926 h -1.602459 c 0,0 -0.718094,0.0096 -0.723183,-0.713926 l 0.0031,-16.4820298 c 0,-0.714209 0.713924,-0.714209 0.713924,-0.714209 h 10.393548 c 2.351387,0 5.032253,1.6209736 5.032253,4.9289169 0,1.6086211 -0.920918,3.0932102 -2.216236,3.998395 -0.104286,0.069725 -0.184342,0.2101212 -0.133919,0.2486639 0.886543,0.698507 0.89719,1.269256 1.209549,2.468155 0.562279,2.170744 0.629093,4.060126 1.483826,5.879153 0.06003,0.125261 -0.08716,0.386881 -0.281678,0.386881 l -2.070152,0.0049 c -0.679836,0 -1.051903,-0.322399 -1.180862,-0.718853 C 48.510461,15.6992 49.02289,13.497621 47.475526,11.34261 47.112245,10.836627 46.309484,10.628402 45.371568,10.628402 h -5.314689 c -0.0014,0 -0.713609,0 -0.716706,0.714208 z m 7.058624,-3.0916614 c 0,0.00306 2.788849,0.00771 2.788849,-2.5483685 0,-2.5545597 -2.788849,-2.5594883 -2.788849,-2.5594883 h -6.341919 c -0.713607,0 -0.713607,0.7188532 -0.713607,0.7188532 0,0 -0.0046,2.7951677 0,3.6732123 0,0.7188554 0.753414,0.7188554 0.713607,0.7188554 z"
               id="path10"
               style="fill:#ffffff;fill-opacity:1;stroke-width:0.905369"
               inkscape:connector-curvature="0" />
          </g>
          <g
             id="g18"
             style="fill:#ffffff;fill-opacity:1;stroke-width:0.905369">
            <path
               d="M 29.332743,8.6378555 H 11.789082 c -2.6012845,0 -4.4309573,1.9998295 -4.4309573,4.3479625 0,2.343207 1.9392042,4.396712 4.4309573,4.396712 2.568904,0 21.454136,0 21.454136,0 v 1.301325 c 0,0 -18.219139,0 -21.475709,0 -3.4562078,0 -5.7807451,-2.645231 -5.7807451,-5.68723 0,-3.0426303 2.3350248,-5.6743079 5.7714851,-5.6743079 4.605413,0 16.223793,0 16.223793,0 v 0 -1.7758393 H 5.986763 V 18.683855 H 4.5424223 V 4.2309709 H 29.332744 v 4.4068846 z"
               id="path14"
               style="fill:#ffffff;fill-opacity:1;stroke-width:0.905369"
               inkscape:connector-curvature="0" />
            <path
               d="M 10.43993,15.23801 H 33.243217 V 13.925252 H 11.789082 v -1.777672 0 c 0,0 12.795705,0 16.2286,0 3.436428,0 5.771298,-2.6298445 5.771298,-5.6733916 0,-3.0429153 -2.39518,-5.7004981 -5.85262,-5.7004981 -3.456932,0 -26.9363591,0 -26.9363591,0 V 18.683854 H 2.4460475 V 2.0910611 c 0,0 23.0428525,0 25.5359955,0 2.497915,0 4.446848,2.0519567 4.446848,4.3967118 0,2.3450708 -1.843887,4.3442691 -4.446848,4.3442691 -2.600685,0 -17.542112,0 -17.542112,0 v 4.405968 z"
               id="path16"
               style="fill:#ffffff;fill-opacity:1;stroke-width:0.905369"
               inkscape:connector-curvature="0" />
          </g>
        </g>
      </g>
    </g>
    <path
       id="path2630"
       style="display:inline;fill:#ffffff;stroke:none;stroke-width:0.165;stroke-linecap:butt;stroke-linejoin:miter;stroke-miterlimit:4;stroke-dasharray:none;stroke-opacity:1"
       d="m 78.871904,126.10524 v 20.58243 c 0,0.90333 -0.83187,1.94614 -1.8573,1.9628 h -28.48638 v 7.28729 h 28.48638 c 4.87657,0.002 9.10491,-3.97635 8.99178,-9.25009 v -20.58243 z m 12.44259,0 v 7.28729 l 13.795986,7.62867 -13.795986,7.62927 v 7.28729 l 21.827896,-11.27232 21.82728,11.27232 v -7.28729 l -13.79599,-7.62927 13.79599,-7.62867 v -7.28729 l -21.82728,11.27231 z m 115.831326,0 v 7.28789 h 33.94185 c 0.64563,0.0347 1.93971,0.42309 1.92521,1.99131 -0.013,1.5681 -1.29589,1.96212 -1.92521,1.99433 h -28.24749 v 7.2891 h 28.24749 c 0.62932,0.0303 1.91236,0.42609 1.92521,1.99434 0.013,1.56819 -1.27962,1.95712 -1.92521,1.9919 h -33.94185 v 7.2885 h 33.94185 c 8.28148,-0.0434 10.38198,-10.65606 6.80946,-14.91898 3.57264,-4.26289 1.47213,-14.87502 -6.80946,-14.91839 z m -37.38235,6.2e-4 c -5.07279,-0.0434 -8.84768,4.7443 -8.62432,9.06394 v 11.87928 c -0.17708,5.56176 3.84914,9.05191 8.62432,8.88809 h 5.09769 14.09192 5.09769 c 4.77528,0.16369 8.80265,-3.32633 8.62554,-8.88809 V 135.1698 c 0.22348,-4.31964 -3.55259,-9.1073 -8.62554,-9.06394 h -5.09769 -14.09192 z m 0,7.2885 h 5.09769 14.09192 5.09769 c 1.08857,0.0439 1.49702,0.92573 1.49288,1.77422 v 11.8805 c -0.0381,0.9473 -0.6789,1.59209 -1.49288,1.6008 h -5.09769 -14.09192 -5.09769 c -0.814,-0.008 -1.45283,-0.6535 -1.49227,-1.6008 v -11.8805 c 0,-0.84849 0.40349,-1.73039 1.49227,-1.77422 z m -30.03566,3.98442 v 7.28728 h 16.06321 v -7.28728 z" />
    <path
       style="fill:#b41006;fill-opacity:1;stroke:#000000;stroke-width:0.264583px;stroke-linecap:butt;stroke-linejoin:miter;stroke-opacity:1"
       d="M 48.660516,103.08427 H 248.99577 v 1.85605 H 48.660516 Z"
       id="path13789"
       sodipodi:nodetypes="ccccc" />
  </g>
</svg>
