<?xml version="1.0" encoding="UTF-8" standalone="no"?>
<!-- Created with Inkscape (http://www.inkscape.org/) -->

<svg
   width="297mm"
   height="210mm"
   viewBox="0 0 297 210"
   version="1.1"
   id="svg5"
   inkscape:version="1.1.2 (0a00cf5339, 2022-02-04)"
   sodipodi:docname="rev2.svg"
   xmlns:inkscape="http://www.inkscape.org/namespaces/inkscape"
   xmlns:sodipodi="http://sodipodi.sourceforge.net/DTD/sodipodi-0.dtd"
   xmlns="http://www.w3.org/2000/svg"
   xmlns:svg="http://www.w3.org/2000/svg">
  <sodipodi:namedview
     id="namedview7"
     pagecolor="#ffffff"
     bordercolor="#666666"
     borderopacity="1.0"
     inkscape:pageshadow="2"
     inkscape:pageopacity="0.0"
     inkscape:pagecheckerboard="0"
     inkscape:document-units="mm"
     showgrid="true"
     inkscape:zoom="0.64"
     inkscape:cx="514.0625"
     inkscape:cy="313.28125"
     inkscape:window-width="1920"
     inkscape:window-height="1011"
     inkscape:window-x="0"
     inkscape:window-y="0"
     inkscape:window-maximized="1"
     inkscape:current-layer="layer3"
     inkscape:snap-global="false"
     inkscape:snap-grids="false"
     showguides="false">
    <inkscape:grid
       type="xygrid"
       id="grid19261" />
  </sodipodi:namedview>
  <defs
     id="defs2" />
  <g
     inkscape:groupmode="layer"
     id="layer3"
     inkscape:label="background"
     style="display:inline"
     sodipodi:insensitive="true">
    <rect
       style="display:inline;fill:#000000;fill-opacity:1;stroke:none;stroke-width:0.799999"
       id="rect101984"
       width="284.28696"
       height="193.87642"
       x="6.5699286"
       y="8.4798727"
       rx="12.127643"
       ry="13.390247" />
  </g>
  <g
     inkscape:groupmode="layer"
     id="layer2"
     inkscape:label="logo"
     style="display:inline;opacity:1"
     sodipodi:insensitive="true">
    <g
       id="g49088"
       transform="translate(0,-7.297084)">
      <g
         id="g48828"
         transform="matrix(1.0375243,0,0,1.0375243,-25.136097,-159.35134)"
         style="fill:#ffffff;stroke-width:0.963833">
        <path
           id="path1592"
           style="fill:#ffffff;stroke:none;stroke-width:0.963832px;stroke-linecap:butt;stroke-linejoin:miter;stroke-opacity:1"
           d="m 270.24414,1006.0605 -0.10156,22.7481 h 63.83203 3.00781 c 1.78867,0.084 3.30822,1.558 3.32422,3.25 v 10.5078 c -0.016,1.692 -1.53555,3.1661 -3.32422,3.25 h -2.48047 v 0 h -38.02343 -25.70704 -0.10351 v 40.5898 h 25.81055 v -17.8398 h 38.02343 11.13086 c 11.98843,0 20.54307,-8.3299 20.48438,-18.7481 v -22.7988 -2.209 c 0.0587,-10.4182 -8.49595,-18.7481 -20.48438,-18.7481 h -11.6582 z"
           transform="scale(0.26458333)" />
        <path
           id="path1592-2"
           style="display:inline;fill:#ffffff;stroke:none;stroke-width:0.255014px;stroke-linecap:butt;stroke-linejoin:miter;stroke-opacity:1"
           d="m 156.65232,266.18684 -0.0269,6.01877 h 16.88889 0.79582 c 0.47325,0.0222 0.8753,0.41222 0.87953,0.8599 v 2.78019 c -0.004,0.44767 -0.40628,0.83769 -0.87953,0.85989 h -0.6563 v 0 h -10.06036 -6.80166 -0.0274 v 10.73939 h 6.82904 v -4.72012 h 10.06036 2.94504 c 3.17194,0 5.43536,-2.20395 5.41983,-4.96043 v -6.03218 -0.58447 c 0.0155,-2.75648 -2.24789,-4.96043 -5.41983,-4.96043 h -3.08456 z" />
        <path
           id="path1592-6-9"
           style="display:inline;fill:#ffffff;stroke:none;stroke-width:0.963832px;stroke-linecap:butt;stroke-linejoin:miter;stroke-opacity:1"
           d="m 372.10742,1006.0605 -0.0703,15.754 h -0.0332 v 64.5898 h 25.81054 v -17.8398 h 38.02344 5.65039 c 2.34516,-0.022 3.61965,1.7734 3.63477,3.5664 h 0.004 v 14.2754 h 25.81055 v -17.8398 h -0.0117 c 0.26608,-5.2501 -4.6524,-12.8542 -9.49023,-12.7676 4.76832,-0.02 9.40557,-4.4917 9.49023,-9.9805 v -4.209 -16.7988 c 0.0586,-10.4182 -8.49594,-18.7481 -20.48437,-18.7481 h -14.60352 z m 25.70703,22.7481 h 38.02344 5.95508 c 1.78866,0.084 3.30624,1.5561 3.32226,3.248 v 10.5098 c -0.016,1.692 -1.5336,3.1661 -3.32226,3.25 h -5.95508 v 0 h -38.02344 z"
           transform="scale(0.26458333)" />
        <path
           id="path1592-6-9-23"
           style="display:inline;fill:#ffffff;stroke:none;stroke-width:0.963832px;stroke-linecap:butt;stroke-linejoin:miter;stroke-opacity:1"
           d="m 496.75,1006.0605 c -11.98843,0 -20.54296,8.3299 -20.48438,18.7481 v 28.4023 6.3965 10.4024 c -0.0586,10.4182 8.49595,18.748 20.48438,18.748 h 33.00391 2.27734 33.00391 c 11.98843,0 20.54295,-8.3298 20.48437,-18.748 v -10.4024 -34.7988 c 0.0586,-10.4182 -8.49594,-18.7481 -20.48437,-18.7481 h -33.00391 z m 8.65039,22.7481 h 26.73242 24.25391 c 1.78866,0.084 3.30624,1.5561 3.32226,3.248 v 15.5508 15.1543 c -0.016,1.692 -1.5336,3.1642 -3.32226,3.2481 h -24.25391 -2.48047 -24.25195 c -1.78866,-0.084 -3.30819,-1.5561 -3.32422,-3.2481 v -15.1543 -0.3965 -15.1543 c 0.016,-1.6919 1.53556,-3.1641 3.32422,-3.248 z"
           transform="scale(0.26458333)" />
        <path
           id="path1594-93"
           style="display:inline;fill:#ffffff;stroke:none;stroke-width:0.963832px;stroke-linecap:butt;stroke-linejoin:miter;stroke-opacity:1"
           d="m 808.98438,1006.0605 v 22.7481 h 87.83007 v -22.7481 z m 0,28.5411 v 11.2129 10.3632 30.2266 h 25.81054 62.01953 v -22.7481 h -62.01953 v -7.4785 h 62.01953 v -21.5761 z"
           transform="scale(0.26458333)" />
        <path
           id="path1594-9"
           style="display:inline;fill:#ffffff;stroke:none;stroke-width:0.963832px;stroke-linecap:butt;stroke-linejoin:miter;stroke-opacity:1"
           d="m 694.80469,1006.0605 v 80.3438 h 25.81054 v -29.3398 h 53.09571 v 29.3398 h 25.81054 v -80.3438 h -25.81054 v 28.2559 h -53.09571 v -28.2559 z"
           transform="scale(0.26458333)" />
        <path
           id="path1594-9-2"
           style="display:inline;fill:#ffffff;stroke:none;stroke-width:0.963832px;stroke-linecap:butt;stroke-linejoin:miter;stroke-opacity:1"
           d="m 901.06055,1006.0605 -0.10157,22.7481 h 35.26563 v 57.5957 h 25.81055 v -57.5957 h 35.26757 v -22.7481 z"
           transform="scale(0.26458333)"
           sodipodi:nodetypes="ccccccccc" />
        <path
           id="path12023"
           style="fill:#ffffff;stroke:none;stroke-width:0.963832px;stroke-linecap:butt;stroke-linejoin:miter;stroke-opacity:1"
           d="m 271.67188,1100.3223 v 62.8007 h 21.35937 v -14.0683 h 32.24023 v 14.0683 h 11.23047 10.13086 v -18.2773 c -0.0204,-2.828 -2.31237,-6.0943 -4.82812,-5.9004 2.50844,-0.1066 4.927,-3.1465 4.82812,-5.6914 v -22.2656 c -0.0671,-5.1971 -3.79076,-10.5209 -10.13086,-10.666 h -8.36718 -35.10352 z m 63.35546,3.9863 c 3.87598,0.052 7.40237,2.2363 7.53125,5.9883 0.0344,7.8579 0.26526,15.8007 -0.0976,23.6211 -0.0768,2.5189 -4.9737,5.1377 -7.75782,5.2148 2.53378,-0.044 7.6835,2.618 7.74219,4.9199 0.13633,5.0524 0.0852,10.0514 0.18555,15.0664 h -13.36133 v -9.7617 c -0.007,-2.7878 -0.8049,-4.2006 -4.16992,-4.3008 H 289.0313 v 14.0625 h -13.36133 v -54.7968 c 19.28887,0.01 38.57639,-0.011 57.86524,0.01 z m -24.70898,11.1348 c -7.09481,-0.01 -14.19651,0.083 -21.28711,0.027 v 18.4316 h 21.4043 c 4.70287,0.042 8.1259,-0.048 12.64062,0 3.13199,-0.072 6.07752,-0.8009 6.19336,-4.2949 0,-0.9679 -0.0219,-5.6222 -0.0332,-9.1484 -0.11817,-3.5375 -2.72493,-4.6991 -6.16016,-4.834 -4.24746,-0.1329 -8.50092,-0.1756 -12.75781,-0.1816 z m -17.28711,4.0254 h 28.63867 c 2.0504,0.054 3.42224,1.6152 3.47852,3.1777 l 0.12304,-0.1309 v 4.5528 l -0.11132,-0.078 c -0.0192,1.8695 -1.64843,2.8629 -3.49024,2.916 h -28.63867 z"
           transform="scale(0.26458333)" />
        <path
           id="path12023-2"
           style="display:inline;fill:#ffffff;stroke:none;stroke-width:0.963832px;stroke-linecap:butt;stroke-linejoin:miter;stroke-opacity:1"
           d="m 349.30469,1100.3223 v 19.1465 h 67.56054 v -19.1465 z m 4,4.0019 h 59.55664 v 11.1465 h -59.55664 z m -4,18.9473 v 39.8515 h 12.23828 9.12109 46.20117 v -19.1464 h -46.20117 v -3.5586 h 44.42188 v -17.1465 h -44.42188 z m 4,4.0019 h 57.77734 c 4e-5,3.0488 0,6.0978 0,9.1465 h -44.41601 v 11.5606 h 46.19531 v 11.1386 h -59.55664 z"
           transform="scale(0.26458333)" />
        <path
           id="path12611-9-7-1"
           style="display:inline;fill:#ffffff;stroke:none;stroke-width:0.963832px;stroke-linecap:butt;stroke-linejoin:miter;stroke-opacity:1"
           d="m 418.28516,1100.4961 29.28125,62.6269 h 7.29297 13.68554 7.29297 l 29.28125,-62.6269 h -21.06836 l -21.34766,44.0762 -2.18359,0.016 -21.16601,-44.0918 z m 6.28515,3.9961 h 12.23047 c 6.76252,14.4807 13.48809,28.9847 20.27344,43.4512 h 9.08984 c 7.11829,-14.7239 13.46753,-28.6515 20.44336,-43.4512 h 12.23047 c -8.5138,18.2087 -17.02721,36.4183 -25.54101,54.6269 h -23.18555 c -8.5138,-18.2086 -17.02722,-36.4182 -25.54102,-54.6269 z"
           transform="scale(0.26458333)" />
        <path
           id="path18500"
           style="fill:#ffffff;stroke:none;stroke-width:0.963832px;stroke-linecap:butt;stroke-linejoin:miter;stroke-opacity:1"
           d="m 522.00781,1100.4961 c -5.25649,0.056 -11.07152,4.9744 -10.8164,10.3027 v 13.6621 l 18.10156,-0.064 v -5.6035 c 0.0834,-1.5513 1.03132,-3.0503 2.73047,-3.1016 h 29.64648 c 1.69915,0.051 2.64703,1.5503 2.73047,3.1016 v 5.5859 c -0.0834,1.5512 -1.03132,3.019 -2.73047,3.0684 h -11.55078 -6.54492 -21.56641 c -5.25649,0.056 -11.07152,4.9743 -10.8164,10.3027 v 13.6621 11.7109 H 582.5 v -15.1953 h -50.31055 c -1.48432,0 -2.44332,-1.0451 -2.74414,-2.2578 l -0.0351,-1.1074 c 0.0698,-1.2974 0.65812,-2.5785 1.83789,-2.9941 h 18.87109 14.35547 7.21094 c 5.25649,-0.056 11.06957,-4.9744 10.81445,-10.3028 v -3.8183 -2.9864 -6.8574 -6.8047 c 0.25512,-5.3283 -5.55796,-10.2468 -10.81445,-10.3027 h -7.21094 z m 11.22461,4.0644 c 13.86652,0.01 31.2925,0.1894 38.05664,0.068 4.05245,0.192 7.14725,4.5122 7.20508,7.3711 0.12019,6.4205 -0.0854,11.753 0,18.377 -0.0458,3.4904 -2.23319,6.8342 -5.6582,7.0175 -13.09247,0.3655 -28.99942,0.06 -42.11328,0.168 -3.32436,0.2191 -5.43466,2.0781 -5.40821,7.082 0.0253,5.004 2.29127,7.1807 5.40821,7.1504 15.91249,0.2816 31.85812,0.05 47.7832,0.1348 v 7.1894 h -63.31445 c 0.008,-6.4365 -0.0167,-12.8741 0.01,-19.3105 -0.008,-3.6579 1.99511,-8.0537 5.66016,-8.1875 l 42.94336,-0.1777 c 4.12523,-0.4418 4.74033,-6.1652 4.60156,-9.9082 -0.13877,-3.743 0.38222,-9.5189 -5.25586,-9.668 -5.63808,-0.1491 -20.45997,-0.048 -30.68359,-0.1856 -6.38861,-0.021 -7.1853,3.2307 -7.17774,8.7266 -3.36612,0.011 -6.73153,0.026 -10.09765,0.037 0.002,-2.5339 -0.007,-5.0676 0.004,-7.6015 0.0889,-3.965 1.95508,-8.083 5.88477,-8.2149 3.30453,-0.054 7.53017,-0.071 12.15234,-0.068 z"
           transform="scale(0.26458333)"
           sodipodi:nodetypes="ccccccccccccccccccscccccccccccccccccccccccccccczzccccccc" />
      </g>
      <path
         style="display:inline;fill:#ffffff;fill-opacity:1;stroke:none;stroke-width:0.264583px;stroke-linecap:butt;stroke-linejoin:miter;stroke-opacity:1"
         d="M 49.021188,102.90255 H 248.63511 v 1.85604 H 49.021188 Z"
         id="path13789-9"
         sodipodi:nodetypes="ccccc" />
      <g
         id="g48529"
         transform="matrix(0.29499279,0,0,0.29499279,40.813906,-146.45309)"
         style="fill:#ffffff;stroke-width:3.38992">
        <path
           id="path40239"
           style="fill:#ffffff;stroke:none;stroke-width:3.38991px;stroke-linecap:butt;stroke-linejoin:miter;stroke-opacity:1"
           d="m 948.30273,2721.8828 v 237.9323 c -0.30644,54.5937 42.39376,87.7674 88.11327,87.2845 h 78.5918 88.1133 v -77.2871 -247.9297 h -88.1133 v 247.9297 H 1064.98 c -14.8241,-0.1111 -28.2805,-9.9556 -28.564,-25.1788 v -222.7509 z"
           transform="scale(0.26458333)"
           sodipodi:nodetypes="ccccccccccccc" />
        <path
           id="path40239-7"
           style="display:inline;fill:#ffffff;stroke:none;stroke-width:0.896914px;stroke-linecap:butt;stroke-linejoin:miter;stroke-opacity:1"
           d="m 459.55868,806.2134 v -62.95292 c 0.0811,-14.44459 -11.21669,-23.22179 -23.31331,-23.09403 h -20.79408 -23.31331 v 20.44888 65.59807 h 23.31331 v -65.59807 h 13.23653 c 3.9222,0.0294 7.48254,2.63409 7.55755,6.66189 v 58.93618 z"
           sodipodi:nodetypes="ccccccccccccc" />
        <path
           id="path40239-7-4"
           style="display:inline;fill:#ffffff;stroke:none;stroke-width:3.38991px;stroke-linecap:butt;stroke-linejoin:miter;stroke-opacity:1"
           d="m 1767.1875,2721.8828 v 77.2891 h 209.6797 v -77.2891 z m 16.0957,126 v 111.9336 c -0.3065,54.5937 42.3938,87.7661 88.1133,87.2832 h 94.5918 v -77.2851 h -66.0293 c -14.8241,-0.1112 -28.279,-9.9566 -28.5625,-25.1797 v -96.752 z"
           transform="scale(0.26458333)" />
        <path
           id="path40239-0"
           style="display:inline;fill:#ffffff;stroke:none;stroke-width:3.38991px;stroke-linecap:butt;stroke-linejoin:miter;stroke-opacity:1"
           d="m 1233.7266,2721.8828 v 77.2891 h 218.7382 v -77.2891 z m 0,125.4219 v 199.7949 h 88.1152 130.623 v -77.2871 h -130.623 v -45.2207 h 130.623 v -77.2871 h -130.623 -40.6016 z"
           transform="scale(0.26458333)" />
        <path
           id="path40239-0-2"
           style="display:inline;fill:#ffffff;stroke:none;stroke-width:0.896914px;stroke-linecap:butt;stroke-linejoin:miter;stroke-opacity:1"
           d="m 92.977541,720.16482 v 20.44941 h 57.874479 v -20.44941 z m 0,33.18455 v 52.8624 h 23.313819 34.56066 v -20.44888 h -34.56066 v -11.96464 h 34.56066 v -20.44888 h -34.56066 -10.74251 z"
           sodipodi:nodetypes="ccccccccccccccccc" />
        <path
           id="path40239-0-9"
           style="display:inline;fill:#ffffff;stroke:none;stroke-width:3.38991px;stroke-linecap:butt;stroke-linejoin:miter;stroke-opacity:1"
           d="m 2007.4883,2721.8828 v 77.2891 h 88.1133 v -77.2891 z m 0,126 v 199.2168 h 88.1133 v -199.2168 z"
           transform="scale(0.26458333)" />
        <path
           id="path40239-0-1"
           style="display:inline;fill:#ffffff;stroke:none;stroke-width:3.38991px;stroke-linecap:butt;stroke-linejoin:miter;stroke-opacity:1"
           d="m 2461.6465,2721.8828 v 247.9297 77.2871 h 88.1152 110.9004 v -77.2871 h -110.9004 v -247.9297 z"
           transform="scale(0.26458333)" />
        <path
           id="path40818-56-5-4"
           style="display:inline;fill:#ffffff;stroke:none;stroke-width:3.38991px;stroke-linecap:butt;stroke-linejoin:miter;stroke-opacity:1"
           d="m 2233.248,2721.8828 88.9942,247.9317 h -84.3008 l 34.4024,-121.9317 h -80.668 l -65.3477,199.2168 h 305.7461 l -102.6816,-325.2168 z"
           transform="scale(0.26458333)" />
        <path
           style="fill:#ffffff;stroke:none;stroke-width:0.896914px;stroke-linecap:butt;stroke-linejoin:miter;stroke-opacity:1"
           d="m 27.821974,785.76289 v 20.44888 H 54.413048 C 83.22074,806.37478 93.64471,776.2943 78.231639,755.85184 L 59.468611,733.98451 c -2.927903,-3.41835 -3.28253,-8.73657 -2.236988,-13.81969 H 32.88698 c -1.774189,9.0615 -0.396631,17.22016 5.51013,24.50558 l 18.182506,21.3108 c 8.988937,11.44949 1.854423,19.69978 -5.821184,19.78169 z"
           id="path44723"
           sodipodi:nodetypes="ccccccccccc" />
        <path
           style="fill:#ffffff;stroke:none;stroke-width:0.896914px;stroke-linecap:butt;stroke-linejoin:miter;stroke-opacity:1"
           d="m 189.03106,806.21177 -20.6088,-21.18075 c -20.67888,-22.83303 -8.60096,-67.06737 32.29423,-66.5553 40.89518,0.51207 54.15201,44.0586 30.00102,66.22978 H 204.0532 c 27.12418,-28.5528 9.36632,-46.57728 -3.33671,-46.54895 -16.74054,0.0373 -26.50444,20.47481 -8.1599,38.60751 l 28.20305,29.44771 z"
           id="path46886"
           sodipodi:nodetypes="cczccsccc" />
      </g>
    </g>
  </g>
</svg>
