<?xml version="1.0" encoding="UTF-8" standalone="no"?>
<!-- Created with Inkscape (http://www.inkscape.org/) -->

<svg
   width="297mm"
   height="210mm"
   viewBox="0 0 297 210"
   version="1.1"
   id="svg5"
   inkscape:version="1.1.2 (0a00cf5339, 2022-02-04)"
   sodipodi:docname="dx7.svg"
   xmlns:inkscape="http://www.inkscape.org/namespaces/inkscape"
   xmlns:sodipodi="http://sodipodi.sourceforge.net/DTD/sodipodi-0.dtd"
   xmlns="http://www.w3.org/2000/svg"
   xmlns:svg="http://www.w3.org/2000/svg">
  <sodipodi:namedview
     id="namedview7"
     pagecolor="#ffffff"
     bordercolor="#666666"
     borderopacity="1.0"
     inkscape:pageshadow="2"
     inkscape:pageopacity="0.0"
     inkscape:pagecheckerboard="0"
     inkscape:document-units="mm"
     showgrid="true"
     inkscape:zoom="0.35355339"
     inkscape:cx="359.21024"
     inkscape:cy="445.47727"
     inkscape:window-width="1920"
     inkscape:window-height="1011"
     inkscape:window-x="0"
     inkscape:window-y="0"
     inkscape:window-maximized="1"
     inkscape:current-layer="layer3"
     inkscape:snap-global="true"
     inkscape:snap-grids="false"
     showguides="false">
    <inkscape:grid
       type="xygrid"
       id="grid19261" />
  </sodipodi:namedview>
  <defs
     id="defs2" />
  <g
     inkscape:groupmode="layer"
     id="layer3"
     inkscape:label="background"
     style="display:inline"
     sodipodi:insensitive="true">
    <rect
       style="display:inline;fill:#000000;fill-opacity:1;stroke:none;stroke-width:0.799999"
       id="rect101984"
       width="284.28696"
       height="193.87642"
       x="6.5699286"
       y="8.4798727"
       rx="12.127643"
       ry="13.390247" />
  </g>
  <g
     inkscape:groupmode="layer"
     id="layer2"
     inkscape:label="logo"
     style="display:inline;opacity:1"
     sodipodi:insensitive="true">
    <path
       style="display:inline;fill:#47ded1;fill-opacity:1;stroke:none;stroke-width:0.264583px;stroke-linecap:butt;stroke-linejoin:miter;stroke-opacity:1"
       d="M 49.021188,103.01382 H 248.63511 v 1.85605 H 49.021188 Z"
       id="path13789-9"
       sodipodi:nodetypes="ccccc" />
    <g
       id="g13188"
       transform="matrix(1.0909192,0,0,1.0909192,6.5284503,92.4799)"
       style="fill:#ffffff;stroke-width:0.916658">
      <path
         style="fill:#ffffff;stroke:none;stroke-width:0.242532px;stroke-linecap:butt;stroke-linejoin:miter;stroke-opacity:1"
         d="m 38.951317,-51.939016 h 7.92885 l 5.42191,17.15027 5.54985,-17.15027 h 7.80091 l -8.96899,26.22465 0.15563,19.1937698 h -8.90061 l -0.14618,-19.1937698 z"
         id="path895"
         sodipodi:nodetypes="cccccccccc" />
      <path
         id="path901"
         style="fill:#ffffff;stroke:none;stroke-width:0.242532px;stroke-linecap:butt;stroke-linejoin:miter;stroke-opacity:1"
         d="m 95.160031,-51.938957 -0.460957,45.4184278 h 8.324046 V -37.521731 l 5.66219,26.412321 h 7.15564 l 5.15265,-26.341016 v 30.9298968 h 8.40879 L 129.6184,-51.938957 H 116.413 l -4.02404,20.874699 -4.52737,-20.874699 z" />
      <path
         id="path903"
         style="fill:#ffffff;stroke:none;stroke-width:0.242532px;stroke-linecap:butt;stroke-linejoin:miter;stroke-opacity:1"
         d="m 164.50981,-51.938957 v 45.4184278 h 8.37933 l 0.0315,-19.5124918 h 8.91781 v 19.5124918 h 8.37933 l 0.0739,-45.4184278 h -8.45323 v 17.46459 h -8.90385 l 0.0284,-17.46459 z" />
      <path
         id="path905-7"
         style="display:inline;fill:#ffffff;stroke:none;stroke-width:0.242532px;stroke-linecap:butt;stroke-linejoin:miter;stroke-opacity:1"
         d="M 69.886635,-51.938957 62.65245,-6.5205292 h 8.239813 l 1.747176,-9.9596048 h 8.934873 l 1.747176,9.9596048 h 8.239813 L 84.326587,-51.938957 h -5.467376 -3.5052 z m 7.22024,9.990614 2.986908,17.026863 h -5.973815 z" />
      <path
         id="path905-7-5"
         style="display:inline;fill:#ffffff;stroke:none;stroke-width:0.242532px;stroke-linecap:butt;stroke-linejoin:miter;stroke-opacity:1"
         d="m 139.33471,-51.938956 -7.23419,45.4184298 h 8.23981 l 1.74718,-9.9596098 h 8.93487 l 1.74718,9.9596098 h 8.23981 l -7.23471,-45.4184298 h -5.46738 -3.5052 z m 7.22024,9.99061 2.98691,17.02687 h -5.97382 z" />
      <path
         id="path905-7-3"
         style="display:inline;fill:#ffffff;stroke:none;stroke-width:0.242532px;stroke-linecap:butt;stroke-linejoin:miter;stroke-opacity:1"
         d="m 200.19095,-51.938956 -7.23419,45.4184298 h 8.23982 l 1.74717,-9.9596098 h 8.93488 l 1.74717,9.9596098 h 8.23981 L 214.6309,-51.938956 h -5.46738 -3.5052 z m 7.22024,9.99061 2.98691,17.02687 h -5.97382 z" />
    </g>
    <g
       id="g13241"
       transform="matrix(0.46111704,0,0,0.46111704,91.960354,-21.636598)"
       style="fill:#ffffff;stroke-width:2.16864">
      <path
         id="path890"
         style="fill:#ffffff;stroke:none;stroke-width:2.16864px;stroke-linecap:butt;stroke-linejoin:miter;stroke-opacity:1"
         d="m -351.94922,1318.8223 102,0.1621 v -9.2383 l -102,-0.1602 z"
         transform="scale(0.26458333)" />
      <path
         id="path9110"
         style="fill:#ffffff;stroke:none;stroke-width:2.16864px;stroke-linecap:butt;stroke-linejoin:miter;stroke-opacity:1"
         d="m -351.94922,1340.9473 102,0.164 v -9.2383 l -102,-0.1601 z"
         transform="scale(0.26458333)" />
      <path
         id="path9106"
         style="fill:#ffffff;stroke:none;stroke-width:2.16864px;stroke-linecap:butt;stroke-linejoin:miter;stroke-opacity:1"
         d="m -351.94922,1363.0742 102,0.1641 V 1354 l -102,-0.1602 z"
         transform="scale(0.26458333)" />
      <path
         id="path9102"
         style="fill:#ffffff;stroke:none;stroke-width:2.16864px;stroke-linecap:butt;stroke-linejoin:miter;stroke-opacity:1"
         d="m -351.94922,1385.2012 102,0.164 v -9.2382 l -102,-0.1602 z"
         transform="scale(0.26458333)" />
      <path
         id="path9098"
         style="fill:#ffffff;stroke:none;stroke-width:2.16864px;stroke-linecap:butt;stroke-linejoin:miter;stroke-opacity:1"
         d="m -351.94922,1407.3281 102,0.1641 v -9.2383 l -102,-0.1601 z"
         transform="scale(0.26458333)" />
      <path
         id="path9094"
         style="fill:#ffffff;stroke:none;stroke-width:2.16864px;stroke-linecap:butt;stroke-linejoin:miter;stroke-opacity:1"
         d="m -351.94922,1429.4551 102,0.164 v -9.2382 l -102,-0.1602 z"
         transform="scale(0.26458333)" />
      <path
         id="path9092"
         style="fill:#ffffff;stroke:none;stroke-width:2.16864px;stroke-linecap:butt;stroke-linejoin:miter;stroke-opacity:1"
         d="m -111.52344,1518.3477 -240.42578,-0.3848 v 0.3848 z"
         transform="scale(0.26458333)" />
      <path
         id="path9090"
         style="fill:#ffffff;stroke:none;stroke-width:2.16864px;stroke-linecap:butt;stroke-linejoin:miter;stroke-opacity:1"
         d="m 55.796875,1509.3672 -407.746095,-0.6387 v 9.2344 l 240.42578,0.3848 H 41.054688 Z"
         transform="scale(0.26458333)" />
      <path
         id="path9086"
         style="fill:#ffffff;stroke:none;stroke-width:2.16864px;stroke-linecap:butt;stroke-linejoin:miter;stroke-opacity:1"
         d="m 92.029297,1487.2969 -443.978517,-0.6953 v 9.2343 l 428.833986,0.6856 z"
         transform="scale(0.26458333)" />
      <path
         id="path9082"
         style="fill:#ffffff;stroke:none;stroke-width:2.16864px;stroke-linecap:butt;stroke-linejoin:miter;stroke-opacity:1"
         d="m 128.25977,1465.2266 -480.20899,-0.752 v 9.2344 l 465.0625,0.7441 z"
         transform="scale(0.26458333)" />
      <path
         id="path9078"
         style="fill:#ffffff;stroke:none;stroke-width:2.16864px;stroke-linecap:butt;stroke-linejoin:miter;stroke-opacity:1"
         d="m 164.49219,1443.1562 -516.44141,-0.8085 v 9.2343 l 501.29297,0.8028 z"
         transform="scale(0.26458333)" />
      <path
         id="path9074"
         style="fill:#ffffff;stroke:none;stroke-width:2.16864px;stroke-linecap:butt;stroke-linejoin:miter;stroke-opacity:1"
         d="m 200.72266,1421.0859 -145.037113,-0.2265 -15.410156,9.2226 145.298829,0.2325 z"
         transform="scale(0.26458333)" />
      <path
         id="path9070"
         style="fill:#ffffff;stroke:none;stroke-width:2.16864px;stroke-linecap:butt;stroke-linejoin:miter;stroke-opacity:1"
         d="m 236.95508,1399.0156 -144.398439,-0.2265 -15.41211,9.2265 144.658199,0.2305 z"
         transform="scale(0.26458333)" />
      <path
         id="path9066"
         style="fill:#ffffff;stroke:none;stroke-width:2.16864px;stroke-linecap:butt;stroke-linejoin:miter;stroke-opacity:1"
         d="m 273.1875,1376.9453 -144.0957,-0.2246 v 0.2012 l -15.07813,9.0254 144.01953,0.2304 z"
         transform="scale(0.26458333)" />
      <path
         id="path9062"
         style="fill:#ffffff;stroke:none;stroke-width:2.16864px;stroke-linecap:butt;stroke-linejoin:miter;stroke-opacity:1"
         d="m 257.94531,1354.7949 -143.86523,-0.2246 14.65039,9.2735 144.49609,0.2304 v 0 z"
         transform="scale(0.26458333)" />
      <path
         id="path9058"
         style="fill:#ffffff;stroke:none;stroke-width:2.16864px;stroke-linecap:butt;stroke-linejoin:miter;stroke-opacity:1"
         d="m 221.4043,1332.6113 -142.369144,-0.2226 14.648438,9.2715 143.003906,0.2285 z"
         transform="scale(0.26458333)" />
      <path
         id="path9054"
         style="fill:#ffffff;stroke:none;stroke-width:2.16864px;stroke-linecap:butt;stroke-linejoin:miter;stroke-opacity:1"
         d="m 184.86328,1310.4277 -140.873046,-0.2226 14.648438,9.2734 141.505858,0.2246 z"
         transform="scale(0.26458333)" />
      <path
         id="path9050"
         style="fill:#ffffff;stroke:none;stroke-width:2.16864px;stroke-linecap:butt;stroke-linejoin:miter;stroke-opacity:1"
         d="m 148.32227,1288.2422 -500.27149,-0.7832 v 9.2363 l 515.55274,0.8242 z"
         transform="scale(0.26458333)" />
      <path
         id="path9046"
         style="fill:#ffffff;stroke:none;stroke-width:2.16864px;stroke-linecap:butt;stroke-linejoin:miter;stroke-opacity:1"
         d="m 111.78125,1266.0586 -463.73047,-0.7266 v 9.2364 l 479.00977,0.7656 z"
         transform="scale(0.26458333)" />
      <path
         id="path9042"
         style="fill:#ffffff;stroke:none;stroke-width:2.16864px;stroke-linecap:butt;stroke-linejoin:miter;stroke-opacity:1"
         d="m 75.242188,1243.875 -427.191408,-0.6699 v 9.2363 l 442.466798,0.709 z"
         transform="scale(0.26458333)" />
      <path
         id="path9038"
         style="fill:#ffffff;stroke:none;stroke-width:2.16864px;stroke-linecap:butt;stroke-linejoin:miter;stroke-opacity:1"
         d="M -0.9296875,1221.6289 H -351.94922 v 8.6856 l 405.923829,0.6503 -15.27539,-9.2734 z"
         transform="scale(0.26458333)" />
      <path
         id="path9036"
         style="fill:#ffffff;stroke:none;stroke-width:2.16864px;stroke-linecap:butt;stroke-linejoin:miter;stroke-opacity:1"
         d="m -0.9296875,1221.6289 39.6289065,0.062 -0.101563,-0.062 z"
         transform="scale(0.26458333)" />
      <path
         id="path11304"
         style="fill:#ffffff;stroke:none;stroke-width:2.16864px;stroke-linecap:butt;stroke-linejoin:miter;stroke-opacity:1"
         d="m 213.77539,1448.5293 h 153.88086 l 28.55859,-17.4473 H 242.49219 Z"
         transform="scale(0.26458333)" />
      <path
         id="path11300"
         style="fill:#ffffff;stroke:none;stroke-width:2.16864px;stroke-linecap:butt;stroke-linejoin:miter;stroke-opacity:1"
         d="m 175.46875,1471.8027 h 154.0918 l 28.55859,-17.4472 H 204.18555 Z"
         transform="scale(0.26458333)" />
      <path
         id="path11296"
         style="fill:#ffffff;stroke:none;stroke-width:2.16864px;stroke-linecap:butt;stroke-linejoin:miter;stroke-opacity:1"
         d="m 137.16211,1495.0762 h 154.30078 l 28.56055,-17.4473 H 165.87891 Z"
         transform="scale(0.26458333)" />
      <path
         id="path11292"
         style="fill:#ffffff;stroke:none;stroke-width:2.16864px;stroke-linecap:butt;stroke-linejoin:miter;stroke-opacity:1"
         d="M 281.92773,1500.9023 H 127.57227 l -28.712895,17.4454 H 253.37109 Z"
         transform="scale(0.26458333)" />
      <path
         id="path11290"
         style="fill:#ffffff;stroke:none;stroke-width:2.16864px;stroke-linecap:butt;stroke-linejoin:miter;stroke-opacity:1"
         d="M 718.47852,1500.9023 H 567.20898 l 29.75977,17.4454 h 150.66992 z"
         transform="scale(0.26458333)" />
      <path
         id="path11286"
         style="fill:#ffffff;stroke:none;stroke-width:2.16864px;stroke-linecap:butt;stroke-linejoin:miter;stroke-opacity:1"
         d="M 679.57812,1477.6289 H 527.50781 l 29.76367,17.4473 h 151.46875 z"
         transform="scale(0.26458333)" />
      <path
         id="path11282"
         style="fill:#ffffff;stroke:none;stroke-width:2.16864px;stroke-linecap:butt;stroke-linejoin:miter;stroke-opacity:1"
         d="M 640.67578,1454.3555 H 487.80664 l 29.76367,17.4472 h 152.26953 z"
         transform="scale(0.26458333)" />
      <path
         id="path11278"
         style="fill:#ffffff;stroke:none;stroke-width:2.16864px;stroke-linecap:butt;stroke-linejoin:miter;stroke-opacity:1"
         d="M 601.77539,1431.082 H 448.10547 l 29.76367,17.4473 H 630.9375 Z"
         transform="scale(0.26458333)" />
      <path
         id="path11274"
         style="fill:#ffffff;stroke:none;stroke-width:2.16864px;stroke-linecap:butt;stroke-linejoin:miter;stroke-opacity:1"
         d="M 562.87695,1407.8105 H 280.79492 l -28.7168,17.4473 h 153.66993 l 15.87695,-9.6992 16.54492,9.6992 h 153.86914 z"
         transform="scale(0.26458333)" />
      <path
         id="path11270"
         style="fill:#ffffff;stroke:none;stroke-width:2.16864px;stroke-linecap:butt;stroke-linejoin:miter;stroke-opacity:1"
         d="M 523.97461,1384.5371 H 319.10156 l -28.71679,17.4473 h 262.7539 z"
         transform="scale(0.26458333)" />
      <path
         id="path11266"
         style="fill:#ffffff;stroke:none;stroke-width:2.16864px;stroke-linecap:butt;stroke-linejoin:miter;stroke-opacity:1"
         d="M 514.60742,1361.2637 H 328.08203 l 14.65039,8.916 -14.04101,8.5312 h 185.54492 l -14.25977,-8.5312 z"
         transform="scale(0.26458333)" />
      <path
         id="path11262"
         style="fill:#ffffff;stroke:none;stroke-width:2.16864px;stroke-linecap:butt;stroke-linejoin:miter;stroke-opacity:1"
         d="M 552.79688,1337.9922 H 289.84375 l 28.66797,17.4473 h 205.6543 z"
         transform="scale(0.26458333)" />
      <path
         id="path11258"
         style="fill:#ffffff;stroke:none;stroke-width:2.16864px;stroke-linecap:butt;stroke-linejoin:miter;stroke-opacity:1"
         d="m 562.94922,1239.0742 h 152.17187 l 28.62696,-17.4453 H 592.15039 Z"
         transform="scale(0.26458333)" />
      <path
         id="path11254"
         style="fill:#ffffff;stroke:none;stroke-width:2.16864px;stroke-linecap:butt;stroke-linejoin:miter;stroke-opacity:1"
         d="m 523.99219,1262.3477 h 152.93554 l 28.63282,-17.4473 H 553.19727 Z"
         transform="scale(0.26458333)" />
      <path
         id="path11250"
         style="fill:#ffffff;stroke:none;stroke-width:2.16864px;stroke-linecap:butt;stroke-linejoin:miter;stroke-opacity:1"
         d="m 485.03906,1285.6191 h 153.70117 l 28.63086,-17.4472 H 514.24414 Z"
         transform="scale(0.26458333)" />
      <path
         id="path11246"
         style="fill:#ffffff;stroke:none;stroke-width:2.16864px;stroke-linecap:butt;stroke-linejoin:miter;stroke-opacity:1"
         d="m 446.08203,1308.8926 h 154.4668 l 28.63086,-17.4473 H 475.28711 Z"
         transform="scale(0.26458333)" />
      <path
         id="path11242"
         style="fill:#ffffff;stroke:none;stroke-width:2.16864px;stroke-linecap:butt;stroke-linejoin:miter;stroke-opacity:1"
         d="M 407.15234,1314.7188 H 251.60156 l 28.66992,17.4472 h 282.08594 l 28.63086,-17.4472 h -154.6582 l -14.70508,8.7851 z"
         transform="scale(0.26458333)" />
      <path
         id="path11238"
         style="fill:#ffffff;stroke:none;stroke-width:2.16864px;stroke-linecap:butt;stroke-linejoin:miter;stroke-opacity:1"
         d="M 368.81055,1291.4453 H 213.36133 l 28.66797,17.4473 h 155.52539 z"
         transform="scale(0.26458333)" />
      <path
         id="path11234"
         style="fill:#ffffff;stroke:none;stroke-width:2.16864px;stroke-linecap:butt;stroke-linejoin:miter;stroke-opacity:1"
         d="M 330.46875,1268.1719 H 175.11914 l 28.66797,17.4472 h 155.42578 z"
         transform="scale(0.26458333)" />
      <path
         id="path11230"
         style="fill:#ffffff;stroke:none;stroke-width:2.16864px;stroke-linecap:butt;stroke-linejoin:miter;stroke-opacity:1"
         d="m 292.13086,1244.9004 h -155.25 l 28.66797,17.4473 H 320.875 Z"
         transform="scale(0.26458333)" />
      <path
         id="path11226"
         style="fill:#ffffff;stroke:none;stroke-width:2.16864px;stroke-linecap:butt;stroke-linejoin:miter;stroke-opacity:1"
         d="m 98.642578,1221.6289 28.666012,17.4453 H 282.5332 l -28.74023,-17.4453 z"
         transform="scale(0.26458333)" />
      <path
         id="path1160"
         style="fill:#ffffff;stroke:none;stroke-width:2.16864px;stroke-linecap:butt;stroke-linejoin:miter;stroke-opacity:1"
         d="m 747.25977,1221.6289 0.0801,73.4121 h 341.35933 l -270.9355,223.3067 h 122.99414 l 272.48626,-224.7813 v -71.9375 z m 12.68164,11.8066 H 1202.625 v 54.5547 l -268.33008,217.3672 h -80.30859 l 266.60937,-221.457 H 759.94141 Z"
         transform="scale(0.26458333)" />
      <path
         style="fill:#ffffff;stroke:none;stroke-width:0.573787px;stroke-linecap:butt;stroke-linejoin:miter;stroke-opacity:1"
         d="m 299.00445,392.50819 v 8.9214 h 2.1448 v -8.9214 z"
         id="path3265"
         sodipodi:nodetypes="ccccc" />
      <path
         id="path3265-2"
         style="display:inline;fill:#ffffff;stroke:none;stroke-width:2.16864px;stroke-linecap:butt;stroke-linejoin:miter;stroke-opacity:1"
         d="m 1225.4414,1483.4961 -12,33.7187 h 8.1055 l 3.2754,-9.2011 h 9.7578 l 3.2754,9.2011 h 8.1074 l -12,-33.7187 h -0.416 z m 4.2598,10.8066 2.7949,7.8516 h -5.5899 z"
         transform="scale(0.26458333)" />
      <path
         style="display:inline;fill:#ffffff;stroke:none;stroke-width:0.573787px;stroke-linecap:butt;stroke-linejoin:miter;stroke-opacity:1"
         d="m 312.06293,392.50819 v 8.9214 h 2.1448 v -8.9214 z"
         id="path3265-5"
         sodipodi:nodetypes="ccccc" />
      <path
         id="path3265-35"
         style="display:inline;fill:#ffffff;stroke:none;stroke-width:2.16864px;stroke-linecap:butt;stroke-linejoin:miter;stroke-opacity:1"
         d="m 1190.6289,1483.4961 v 5.8574 h 9.9551 v 27.8613 h 8.1074 v -27.8613 h 9.9551 v -5.8574 h -9.9551 -8.1074 z"
         transform="scale(0.26458333)" />
      <path
         id="path3265-6"
         style="display:inline;fill:#ffffff;stroke:none;stroke-width:2.16864px;stroke-linecap:butt;stroke-linejoin:miter;stroke-opacity:1"
         d="m 1248.293,1483.4961 v 27.8613 5.8574 h 8.1054 16.6465 v -5.8574 h -16.6465 v -27.8613 z"
         transform="scale(0.26458333)" />
      <path
         id="path3265-3"
         style="display:inline;fill:#ffffff;stroke:none;stroke-width:2.16864px;stroke-linecap:butt;stroke-linejoin:miter;stroke-opacity:1"
         d="m 1094.1328,1483.4961 v 5.8574 22.0039 5.8574 h 8.1055 11.9961 c 5.7844,-0.026 11.3373,-7.1379 11.3769,-13.0058 v -7.707 c -0.04,-5.8679 -5.5925,-12.9789 -11.3769,-13.0059 h -11.9961 z m 8.1055,5.8574 h 9.9961 c 2.608,-0.012 5.2545,4.5426 5.2695,7.1485 v 7.707 c -0.015,2.6059 -2.6615,7.1606 -5.2695,7.1484 h -9.9961 z"
         transform="scale(0.26458333)" />
      <path
         id="path3265-3-7-9"
         style="display:inline;fill:#ffffff;stroke:none;stroke-width:2.16864px;stroke-linecap:butt;stroke-linejoin:miter;stroke-opacity:1"
         d="m 1153.1348,1483.4961 c -5.7845,0.027 -11.3369,7.1379 -11.377,13.0059 v 7.707 c 0.04,5.8679 5.5925,12.9794 11.377,13.0058 h 4.166 1.9355 6.166 c 5.7845,-0.026 11.3374,-7.1379 11.377,-13.0058 v -5.4688 h -17.5098 v 5.4688 h 9.4024 c -0.015,2.6059 -2.6596,7.1606 -5.2676,7.1484 h -4.168 -1.9355 -2.166 c -2.608,0.012 -5.2544,-4.5425 -5.2696,-7.1484 v -7.707 c 0.015,-2.606 2.6616,-7.1598 5.2696,-7.1485 h 2.166 3.9355 2.168 c 1.9273,-0.01 3.8738,2.4749 4.7656,4.8242 h 8.3672 c -1.1314,-5.3216 -6.0436,-10.6579 -11.1348,-10.6816 h -4.166 -3.9355 z"
         transform="scale(0.26458333)" />
    </g>
  </g>
</svg>
