<?xml version="1.0" encoding="UTF-8" standalone="no"?>
<!-- Created with Inkscape (http://www.inkscape.org/) -->

<svg
   width="297mm"
   height="210mm"
   viewBox="0 0 297 210"
   version="1.1"
   id="svg5"
   inkscape:version="1.1.2 (0a00cf5339, 2022-02-04)"
   sodipodi:docname="unosynth.svg"
   xmlns:inkscape="http://www.inkscape.org/namespaces/inkscape"
   xmlns:sodipodi="http://sodipodi.sourceforge.net/DTD/sodipodi-0.dtd"
   xmlns="http://www.w3.org/2000/svg"
   xmlns:svg="http://www.w3.org/2000/svg">
  <sodipodi:namedview
     id="namedview7"
     pagecolor="#ffffff"
     bordercolor="#666666"
     borderopacity="1.0"
     inkscape:pageshadow="2"
     inkscape:pageopacity="0.0"
     inkscape:pagecheckerboard="0"
     inkscape:document-units="mm"
     showgrid="true"
     inkscape:zoom="0.08838835"
     inkscape:cx="-984.29261"
     inkscape:cy="2381.5356"
     inkscape:window-width="1920"
     inkscape:window-height="1011"
     inkscape:window-x="0"
     inkscape:window-y="0"
     inkscape:window-maximized="1"
     inkscape:current-layer="layer2"
     inkscape:snap-global="true"
     inkscape:snap-grids="false"
     showguides="false">
    <inkscape:grid
       type="xygrid"
       id="grid19261" />
  </sodipodi:namedview>
  <defs
     id="defs2" />
  <g
     inkscape:groupmode="layer"
     id="layer3"
     inkscape:label="background"
     style="display:inline"
     sodipodi:insensitive="true">
    <rect
       style="display:inline;fill:#2c2c2c;fill-opacity:1;stroke:none;stroke-width:0.799999"
       id="rect101984"
       width="284.28696"
       height="193.87642"
       x="6.5699286"
       y="8.4798727"
       rx="12.127643"
       ry="13.390247" />
  </g>
  <g
     inkscape:groupmode="layer"
     id="layer2"
     inkscape:label="logo"
     style="display:inline;opacity:1"
     sodipodi:insensitive="true">
    <g
       id="g58199"
       transform="matrix(1.3220798,0,0,1.3220798,-56.793401,-64.982431)"
       style="stroke-width:0.756384">
      <path
         id="path1131"
         style="fill:#cb1f15;fill-opacity:1;stroke:none;stroke-width:0.200126px;stroke-linecap:butt;stroke-linejoin:miter;stroke-opacity:1"
         d="m 178.3467,90.612142 v 51.469708 h 41.63674 V 90.612142 Z m 1.86139,12.472618 h 26.67485 v 26.02529 h -26.67485 z" />
      <path
         style="fill:#686868;fill-opacity:1;stroke:none;stroke-width:0.200126px;stroke-linecap:butt;stroke-linejoin:miter;stroke-opacity:1"
         d="m 90.692542,90.612172 h 12.997228 v 38.497718 h 26.60484 V 90.612172 h 50.76956 l -0.072,51.469748 h -12.73595 v -38.99736 h -25.45746 v 38.99736 H 90.692542 Z"
         id="path930"
         sodipodi:nodetypes="ccccccccccccc" />
      <g
         id="g45619"
         style="fill:#686868;fill-opacity:1;stroke:none;stroke-width:0.756384"
         transform="translate(-4.6617633,-228.38389)">
        <path
           id="path25336"
           style="fill:#686868;fill-opacity:1;stroke:none;stroke-width:0.756383px;stroke-linecap:butt;stroke-linejoin:miter;stroke-opacity:1"
           d="m 805.13867,1440.0801 v 54.9043 h 8.99414 v -24.4805 h 26.89258 v 24.4805 h 8.99414 v -54.9043 h -8.99414 v 24.5312 c -7.15081,-0.028 -20.80347,-0.073 -26.89258,-0.035 v -24.4961 z"
           transform="scale(0.26458333)" />
        <path
           id="path25336-6"
           style="display:inline;fill:#686868;fill-opacity:1;stroke:none;stroke-width:0.756383px;stroke-linecap:butt;stroke-linejoin:miter;stroke-opacity:1"
           d="m 706.8125,1440.0801 c -7.55125,0 -13.65025,0.011 -13.83789,0.07 v 5.8711 h 17.02344 v 48.9629 h 8.99414 v -48.9629 h 17.02343 v -5.8711 c 0,0 -8.10574,-0.026 -17.02343,-0.047 v -0.023 h -8.99414 v 0 c -1.06059,0 -2.16685,0 -3.18555,0 z"
           transform="scale(0.26458333)" />
        <path
           id="path25336-6-5"
           style="display:inline;fill:#686868;fill-opacity:1;stroke:none;stroke-width:0.756383px;stroke-linecap:butt;stroke-linejoin:miter;stroke-opacity:1"
           d="m 580.01758,1440.0801 v 54.9043 h 8.99609 v -40.8985 l 26.26953,40.8985 h 8.99414 v -54.9043 h -8.99414 v 40.9004 l -26.26953,-40.9004 z"
           transform="scale(0.26458333)" />
        <path
           id="path25336-6-3-6"
           style="display:inline;fill:#686868;fill-opacity:1;stroke:none;stroke-width:0.756383px;stroke-linecap:butt;stroke-linejoin:miter;stroke-opacity:1"
           d="m 467.56055,1440.0801 17.16992,31.7715 h 0.16797 v 23.1328 h 8.99609 v -23.1328 h 0.16797 l 17.16992,-31.7715 h -8.99414 l -12.8418,23.7617 -12.84179,-23.7617 z"
           transform="scale(0.26458333)" />
        <path
           id="path25336-6-1-7"
           style="display:inline;fill:#686868;fill-opacity:1;stroke:none;stroke-width:0.756383px;stroke-linecap:butt;stroke-linejoin:miter;stroke-opacity:1"
           d="m 369.20898,1440.084 c -7.19577,0.045 -9.037,3.4922 -8.99414,5.9375 v 14.4687 4.0762 c -0.0429,2.4453 1.79838,5.8925 8.99414,5.9375 l 6.22071,-0.025 v 0.02 h 14.18359 c 1.14157,0.016 1.78422,0.8947 1.81445,1.9981 v 2.082 10.3887 2.082 c -0.0302,1.1034 -0.67292,1.9822 -1.81445,1.9981 h -4.40625 -9.77734 -4.40625 c -1.14153,-0.016 -1.78422,-0.8947 -1.81446,-1.9981 v -3.6933 h -8.99414 v 5.6914 c -0.0429,2.4453 1.79838,5.8925 8.99414,5.9375 l 11.10938,-0.047 11.10937,0.047 c 7.19577,-0.045 9.037,-3.4922 8.99415,-5.9375 v -4.0801 -10.3887 -4.0801 c 0.0428,-2.4453 -1.79838,-5.8925 -8.99415,-5.9375 l -6.2207,0.025 v -0.02 h -14.18359 c -1.14154,-0.016 -1.7846,-0.8946 -1.81446,-1.998 v -12.4707 -2.0782 c 0.0299,-1.1034 0.67292,-1.9822 1.81446,-1.998 h 14.18359 4.40625 c 1.14153,0.016 1.78422,0.8946 1.81445,1.998 v 3.6914 h 8.99415 v -5.6894 c 0.0428,-2.4453 -1.79838,-5.8925 -8.99415,-5.9375 l -11.10937,0.047 z"
           transform="scale(0.26458333)" />
      </g>
    </g>
  </g>
</svg>
