<?xml version="1.0" encoding="UTF-8" standalone="no"?>
<!-- Created with Inkscape (http://www.inkscape.org/) -->

<svg
   width="297mm"
   height="210mm"
   viewBox="0 0 297 210"
   version="1.1"
   id="svg5"
   inkscape:version="1.2.2 (b0a8486541, 2022-12-01)"
   sodipodi:docname="logo.svg"
   inkscape:export-filename="logo.png"
   inkscape:export-xdpi="14.51"
   inkscape:export-ydpi="14.51"
   xmlns:inkscape="http://www.inkscape.org/namespaces/inkscape"
   xmlns:sodipodi="http://sodipodi.sourceforge.net/DTD/sodipodi-0.dtd"
   xmlns="http://www.w3.org/2000/svg"
   xmlns:svg="http://www.w3.org/2000/svg">
  <sodipodi:namedview
     id="namedview7"
     pagecolor="#ffffff"
     bordercolor="#666666"
     borderopacity="1.0"
     inkscape:pageshadow="2"
     inkscape:pageopacity="0.0"
     inkscape:pagecheckerboard="0"
     inkscape:document-units="mm"
     showgrid="true"
     inkscape:zoom="0.5"
     inkscape:cx="486"
     inkscape:cy="479"
     inkscape:window-width="1920"
     inkscape:window-height="1052"
     inkscape:window-x="1920"
     inkscape:window-y="0"
     inkscape:window-maximized="1"
     inkscape:current-layer="layer1"
     inkscape:snap-global="false"
     inkscape:showpageshadow="2"
     inkscape:deskcolor="#d1d1d1">
    <inkscape:grid
       type="xygrid"
       id="grid19261" />
  </sodipodi:namedview>
  <defs
     id="defs2" />
  <g
     inkscape:groupmode="layer"
     id="layer1"
     inkscape:label="spare"
     sodipodi:insensitive="true"
     style="display:none">
    <g
       id="g44582"
       transform="translate(78.658601,186.17476)"
       style="display:inline">
      <path
         style="fill:#000000;stroke:none;stroke-width:0.065;stroke-linecap:butt;stroke-linejoin:miter;stroke-miterlimit:4;stroke-dasharray:none;stroke-opacity:1"
         d="m 48.527591,126.33248 h -1.7059 l -0.006,-8.66922 c 10e-4,-0.9951 0.85211,-1.96082 1.99298,-1.9513 h 7.41485 c 2.21482,-0.0348 3.94709,3.47284 1.65238,5.4825 2.10782,1.73703 0.5817,5.2083 -1.65238,5.13802 h -6.34575 l -0.004,-1.70586 h 6.54864 c 1.35319,0.0112 1.33756,-2.73425 0,-2.75147 h -6.53776 v -1.70586 h 6.53776 c 1.3352,-0.0225 1.22006,-2.75827 0,-2.75146 h -7.07335 c -0.53896,0.003 -0.83405,0.41641 -0.82116,0.83737 z"
         id="path23620"
         sodipodi:nodetypes="cccccccccccccccccc" />
      <path
         id="path23895-9"
         style="display:inline;fill:#000000;stroke:none;stroke-width:0.065;stroke-linecap:butt;stroke-linejoin:miter;stroke-miterlimit:4;stroke-dasharray:none;stroke-opacity:1"
         d="m 74.051341,118.66617 c -0.84978,0.0148 -1.58097,0.80119 -1.5727,1.78778 v 1.34891 c 0.0503,0.92882 0.66749,1.57798 1.5727,1.55034 h 1.4305 4.36007 v 0 h 0.16673 c 0.23861,0 0.50412,0.18333 0.50667,0.42507 v 0.42512 c -0.004,0.2151 -0.3107,0.41572 -0.50667,0.42441 h -0.92457 v 0 h -6.33405 v 1.70548 h 6.73393 v -0.01 l 1.03136,-0.0251 c 0.84978,-0.0148 1.58099,-0.76656 1.5727,-1.75311 v -1.34894 c -0.0503,-0.92882 -0.66749,-1.57725 -1.5727,-1.54961 h -1.43124 v 0 h -3.60223 -0.92457 c -0.23861,0 -0.50338,-0.18336 -0.50593,-0.4251 V 120.797 c 0.004,-0.21508 0.31,-0.41639 0.50593,-0.42511 h 0.92457 6.28497 v -1.70618 h -6.28497 z" />
      <path
         id="path23895-9-1"
         style="display:inline;fill:#000000;stroke:none;stroke-width:0.065;stroke-linecap:butt;stroke-linejoin:miter;stroke-miterlimit:4;stroke-dasharray:none;stroke-opacity:1"
         d="m 85.223711,118.66609 c -0.84978,0.0148 -1.58099,0.80118 -1.5727,1.78777 v 1.3489 c 0.0503,0.92883 0.66749,1.578 1.5727,1.55036 h 1.4305 4.36007 v 0 h 0.16673 c 0.23861,0 0.50412,0.18332 0.50667,0.42507 v 0.4251 c -0.004,0.21512 -0.31071,0.41573 -0.50667,0.42442 h -0.92457 v 0 h -6.33405 v 1.70547 h 6.73391 v -0.01 l 1.03138,-0.0251 c 0.84978,-0.0148 1.58097,-0.76656 1.5727,-1.7531 v -1.34896 c -0.0503,-0.92882 -0.66749,-1.57724 -1.5727,-1.5496 h -1.43124 v 0 h -3.60223 -0.92457 c -0.23861,0 -0.50338,-0.18337 -0.50593,-0.42512 v -0.4244 c 0.004,-0.21507 0.31,-0.41639 0.50593,-0.42512 h 0.92457 6.28497 v -1.70618 h -6.28497 z" />
      <path
         style="fill:#000000;stroke:none;stroke-width:0.065;stroke-linecap:butt;stroke-linejoin:miter;stroke-miterlimit:4;stroke-dasharray:none;stroke-opacity:1"
         d="m 68.675811,125.8368 c 0.003,0.35353 0.14291,0.49718 0.43872,0.49674 h 1.89286 v -1.70586 h -0.62572 v -5.05778 c -0.0189,-0.58057 -0.3051,-0.8912 -0.82386,-0.90346 h -5.83269 c -1.51112,-0.0112 -3.12608,1.41955 -3.21868,2.877 v 2.21157 c -0.032,1.49124 1.71488,2.63374 3.21868,2.57853 h 3.70192 l -0.0141,-1.70586 h -3.68781 c -0.79427,-0.01 -1.5146,-0.45171 -1.54338,-1.28645 v -1.58619 c 0.0155,-0.84686 0.78551,-1.3927 1.54338,-1.38274 h 4.54964 c 0.27464,0.0126 0.39539,0.13687 0.40101,0.43154 z"
         id="path29231"
         sodipodi:nodetypes="cccccccccccccccccccc" />
      <path
         style="fill:#000000;stroke:none;stroke-width:0.065;stroke-linecap:butt;stroke-linejoin:miter;stroke-miterlimit:4;stroke-dasharray:none;stroke-opacity:1"
         d="m 117.0733,126.33354 h 1.70586 v -4.3781 c 0.0161,-0.89358 0.52552,-1.56877 1.43771,-1.58313 h 3.5344 c 0.91508,-0.001 1.45766,0.70008 1.46572,1.58313 v 4.3781 h 1.70586 v -4.3781 c -0.0348,-1.63623 -1.22425,-3.30976 -2.95909,-3.289 h -3.85573 c -1.71629,0.0412 -3.01752,1.75181 -3.03473,3.289 z"
         id="path39111"
         sodipodi:nodetypes="ccccccccccccc" />
      <path
         style="display:inline;fill:#000000;stroke:none;stroke-width:0.065;stroke-linecap:butt;stroke-linejoin:miter;stroke-miterlimit:4;stroke-dasharray:none;stroke-opacity:1"
         d="m 112.07609,126.61903 v -1.70585 l -6.78826,-7e-5 c -0.89358,-0.0161 -1.56877,-0.52551 -1.58313,-1.4377 l -2.1e-4,-7.68806 h -1.70586 l 2e-4,7.79689 c 0.0412,1.7163 1.75181,3.01753 3.289,3.03473 z"
         id="path39111-6"
         sodipodi:nodetypes="ccccccccc" />
      <path
         id="path39111-4"
         style="display:inline;fill:#000000;stroke:none;stroke-width:0.065;stroke-linecap:butt;stroke-linejoin:miter;stroke-miterlimit:4;stroke-dasharray:none;stroke-opacity:1"
         d="m 131.46266,118.66617 c -1.60211,0.0384 -2.84204,1.53195 -3.01399,2.98082 h -0.0204 v 0.30819 1.08909 0.30893 h 0.0204 c 0.17202,1.4488 1.41196,2.9416 3.01399,2.98008 h 3.85558 c 1.17863,0.0141 2.10553,-0.69854 2.58963,-1.70548 h -2.80181 -3.53437 c -0.80363,-0.0126 -1.29453,-0.53867 -1.41104,-1.2746 h 6.41128 0.39625 1.30922 v -1.39802 c -0.0348,-1.63626 -1.22431,-3.30978 -2.95916,-3.28901 z m 0.10908,1.70618 h 3.53437 c 0.80562,0 1.32223,0.5423 1.4399,1.27464 h -6.3853 c 0.1162,-0.73619 0.60714,-1.26197 1.41103,-1.27464 z" />
      <path
         style="fill:#000000;stroke:none;stroke-width:0.065;stroke-linecap:butt;stroke-linejoin:miter;stroke-miterlimit:4;stroke-dasharray:none;stroke-opacity:1"
         d="m 113.59145,126.61903 h 1.70586 v -7.95259 h -1.70586 z"
         id="path43731"
         sodipodi:nodetypes="ccccc" />
      <circle
         style="fill:#000000;stroke:none;stroke-width:0.065;stroke-miterlimit:4;stroke-dasharray:none"
         id="path44115"
         cx="114.4444"
         cy="116.78605"
         r="1.0672215" />
    </g>
  </g>
  <g
     inkscape:groupmode="layer"
     id="layer3"
     inkscape:label="background"
     style="display:inline"
     sodipodi:insensitive="true">
    <rect
       style="display:inline;fill:#e1e6ec;fill-opacity:1;stroke:none;stroke-width:0.799999"
       id="rect101984"
       width="284.28696"
       height="193.87642"
       x="6.5699286"
       y="8.4798727"
       rx="12.127643"
       ry="13.390247" />
  </g>
  <g
     inkscape:groupmode="layer"
     id="layer2"
     inkscape:label="logo"
     style="display:inline"
     sodipodi:insensitive="true">
    <g
       id="g44820"
       transform="translate(1.3326033,4.5849067)">
      <g
         id="g24"
         style="fill:#000000;fill-opacity:1;stroke-width:0.905369"
         transform="matrix(1.661537,0,0,1.661537,46.027046,49.023049)">
        <g
           id="g22"
           style="fill:#000000;fill-opacity:1;stroke-width:0.905369">
          <g
             id="g20"
             style="fill:#000000;fill-opacity:1;stroke-width:0.905369">
            <g
               id="g12"
               style="fill:#000000;fill-opacity:1;stroke-width:0.905369">
              <path
                 d="M 70.465141,1.4922274 V 17.974888 c 0.0012,0 0.0043,0.718538 0.718254,0.718538 h 1.964638 c 0.716385,-0.0046 0.713608,-0.718538 0.713608,-0.718538 V 1.4922274 c 0.0028,0 0,-0.7185372 -0.713608,-0.7185372 h -1.964638 c -0.717025,0 -0.717025,0.7185372 -0.718254,0.7185372 z"
                 id="path2"
                 style="fill:#000000;fill-opacity:1;stroke-width:0.905369"
                 inkscape:connector-curvature="0" />
              <path
                 d="m 104.43314,17.974888 0.001,-7.266249 c 0,-3.2518038 -2.8606,-5.245439 -4.948037,-5.245439 -2.07666,0 -3.842323,0.5398827 -5.200737,1.6400871 C 94.16407,7.2032456 93.824989,7.3069 93.824989,7.0107217 l -0.0062,-0.7497191 c 0,0 0,-0.7145247 -0.715156,-0.7145247 h -1.693764 c 0,0 -0.715157,0 -0.715157,0.7145247 l -0.0025,11.7138854 c 0.0025,0.718538 0.717621,0.718538 0.717621,0.718538 l 1.697487,-0.0015 c 0.711433,-0.0031 0.711433,-0.716991 0.707107,-0.716991 l 0.0025,-5.724886 c 0.0019,-1.581485 1.068741,-4.2844005 4.5803,-4.2844005 2.508243,0 2.908703,1.72646 2.908703,2.7430375 l 0.002,7.266249 c 0,0.718538 0.71703,0.713894 0.71703,0.713894 l 1.69562,0.0046 c 0,0 0.71576,0 0.71206,-0.718538 z"
                 id="path4"
                 style="fill:#000000;fill-opacity:1;stroke-width:0.905369"
                 inkscape:connector-curvature="0" />
              <path
                 d="m 75.73835,9.1722088 c -0.0049,0.024674 -0.0062,0.049348 -0.0062,0.073422"
                 id="path6"
                 style="fill:#000000;fill-opacity:1;stroke-width:0.905369"
                 inkscape:connector-curvature="0" />
              <path
                 d="m 113.37095,8.0306816 c 2.44562,0 4.41769,1.6795778 4.42476,4.2890454 0.005,2.689964 -1.97421,4.416141 -4.41983,4.416141 -2.4475,0 -4.31186,-1.919301 -4.31186,-4.450703 -0.003,-2.5039493 2.02573,-4.2544834 4.30693,-4.2544834 z m 4.08663,9.5428274 c 0.20794,-0.163839 0.42207,-0.02932 0.41834,0.347073 0,0.05431 0,0.772844 0.71702,0.772844 h 1.69531 c 0,0 0.71175,0 0.71175,-0.718538 V 1.4922274 c 0,-0.7185372 -0.71175,-0.714209 -0.71175,-0.714209 h -1.69531 c 0,0 -0.71702,-0.004328 -0.72195,0.714209 l 0.002,5.2056661 c -0.005,0.3763919 -0.20484,0.505352 -0.41219,0.347074 -4.61296,-3.5347137 -11.6247,0 -11.61203,5.2340365 0.0111,5.854764 6.92688,9.007842 11.60834,5.294505 z"
                 id="path8"
                 style="fill:#000000;fill-opacity:1;stroke-width:0.905369"
                 inkscape:connector-curvature="0" />
              <path
                 d="m 79.164764,13.581558 c 1.616333,-0.855205 5.607056,-0.771897 5.976052,-0.722549 0.186332,0.02499 0.455658,0.159194 0.452278,0.421442 -0.01236,3.450489 -4.724991,3.915117 -6.529518,2.727308 -0.376992,-0.248348 -0.615166,-0.69418 -0.630898,-1.090602 -0.01299,-0.586196 0.187882,-1.050509 0.732086,-1.335599 z m -2.099151,4.641363 c 2.213615,1.57684 6.330826,1.194603 8.205993,-0.445486 0.227684,-0.199314 0.491166,-0.03579 0.564591,0.197453 0.184494,0.576626 0.444878,0.713894 1.019669,0.718538 0.263168,0 1.172683,0 1.172683,0 0.709595,0 0.714203,-0.718538 0.709595,-0.718538 l 0.0037,-7.414352 c 9.15e-4,-4.0310928 -3.75898,-5.1016638 -6.642418,-5.1016638 -3.223404,0.00433 -5.330582,1.227901 -6.358597,3.7179494 -0.104256,0.2529917 0.196846,0.5568762 0.454132,0.5568762 l 2.199745,0.00743 c 0.376396,0 0.753418,-0.3190203 0.86573,-0.5047522 0.571976,-0.9576283 1.496315,-1.3142743 3.231423,-1.3142743 1.918991,0 2.424026,0.4263711 3.044464,1.3142743 0.399834,0.5695162 -0.139763,1.1637374 -0.447029,1.1791544 -4.621933,0.237575 -5.406181,0.405394 -6.665581,0.609323 -1.823044,0.286921 -3.216293,2.051672 -3.203346,3.892307 0,1.203513 0.563957,2.398713 1.845253,3.305764 z m -15.819317,0.93204 c 5.71162,0 8.103855,-3.704398 8.099239,-6.844807 C 69.342125,9.3048658 66.941864,5.4632 61.197548,5.4632 55.461857,5.45887 53.06374,9.2937764 53.06374,12.314795 c 0,3.196236 2.42279,6.840166 8.182556,6.840166 z m 0,-2.453024 c -3.339127,0 -4.868134,-2.474346 -4.868134,-4.371722 0,-1.894626 1.599965,-4.3970276 4.820618,-4.3970276 3.22002,0 4.831707,2.4869846 4.831707,4.3816076 0,1.917123 -1.576523,4.387142 -4.784191,4.387142 z m -21.906128,-5.3593 c -0.0015,1.665077 0.0031,5.452151 0.0031,6.627292 0,0.717336 -0.716991,0.713926 -0.716991,0.713926 h -1.602459 c 0,0 -0.718094,0.0096 -0.723183,-0.713926 l 0.0031,-16.4820298 c 0,-0.714209 0.713924,-0.714209 0.713924,-0.714209 h 10.393548 c 2.351387,0 5.032253,1.6209736 5.032253,4.9289169 0,1.6086211 -0.920918,3.0932102 -2.216236,3.998395 -0.104286,0.069725 -0.184342,0.2101212 -0.133919,0.2486639 0.886543,0.698507 0.89719,1.269256 1.209549,2.468155 0.562279,2.170744 0.629093,4.060126 1.483826,5.879153 0.06003,0.125261 -0.08716,0.386881 -0.281678,0.386881 l -2.070152,0.0049 c -0.679836,0 -1.051903,-0.322399 -1.180862,-0.718853 C 48.510461,15.6992 49.02289,13.497621 47.475526,11.34261 47.112245,10.836627 46.309484,10.628402 45.371568,10.628402 h -5.314689 c -0.0014,0 -0.713609,0 -0.716706,0.714208 z m 7.058624,-3.0916614 c 0,0.00306 2.788849,0.00771 2.788849,-2.5483685 0,-2.5545597 -2.788849,-2.5594883 -2.788849,-2.5594883 h -6.341919 c -0.713607,0 -0.713607,0.7188532 -0.713607,0.7188532 0,0 -0.0046,2.7951677 0,3.6732123 0,0.7188554 0.753414,0.7188554 0.713607,0.7188554 z"
                 id="path10"
                 style="fill:#000000;fill-opacity:1;stroke-width:0.905369"
                 inkscape:connector-curvature="0" />
            </g>
            <g
               id="g18"
               style="fill:#000000;fill-opacity:1;stroke-width:0.905369">
              <path
                 d="M 29.332743,8.6378555 H 11.789082 c -2.6012845,0 -4.4309573,1.9998295 -4.4309573,4.3479625 0,2.343207 1.9392042,4.396712 4.4309573,4.396712 2.568904,0 21.454136,0 21.454136,0 v 1.301325 c 0,0 -18.219139,0 -21.475709,0 -3.4562078,0 -5.7807451,-2.645231 -5.7807451,-5.68723 0,-3.0426303 2.3350248,-5.6743079 5.7714851,-5.6743079 4.605413,0 16.223793,0 16.223793,0 v 0 -1.7758393 H 5.986763 V 18.683855 H 4.5424223 V 4.2309709 H 29.332744 v 4.4068846 z"
                 id="path14"
                 style="fill:#000000;fill-opacity:1;stroke-width:0.905369"
                 inkscape:connector-curvature="0" />
              <path
                 d="M 10.43993,15.23801 H 33.243217 V 13.925252 H 11.789082 v -1.777672 0 c 0,0 12.795705,0 16.2286,0 3.436428,0 5.771298,-2.6298445 5.771298,-5.6733916 0,-3.0429153 -2.39518,-5.7004981 -5.85262,-5.7004981 -3.456932,0 -26.9363591,0 -26.9363591,0 V 18.683854 H 2.4460475 V 2.0910611 c 0,0 23.0428525,0 25.5359955,0 2.497915,0 4.446848,2.0519567 4.446848,4.3967118 0,2.3450708 -1.843887,4.3442691 -4.446848,4.3442691 -2.600685,0 -17.542112,0 -17.542112,0 v 4.405968 z"
                 id="path16"
                 style="fill:#000000;fill-opacity:1;stroke-width:0.905369"
                 inkscape:connector-curvature="0" />
            </g>
          </g>
        </g>
      </g>
      <g
         id="g44781"
         transform="matrix(2.755715,0,0,2.755715,-279.7418,-383.20256)"
         style="stroke-width:0.362882">
        <path
           style="display:inline;fill:#000000;stroke:none;stroke-width:0.0235873;stroke-linecap:butt;stroke-linejoin:miter;stroke-miterlimit:4;stroke-dasharray:none;stroke-opacity:1"
           d="m 119.1351,185.42707 v 0.50503 h 71.96237 v -0.50503 z"
           id="path2313-3"
           sodipodi:nodetypes="ccccc" />
        <path
           style="display:inline;fill:#000000;stroke:none;stroke-width:0.0235873;stroke-linecap:butt;stroke-linejoin:miter;stroke-miterlimit:4;stroke-dasharray:none;stroke-opacity:1"
           d="m 179.76992,186.95169 v 5.58488 h 0.4514 v -5.58488 z"
           id="path1258"
           sodipodi:nodetypes="ccccc" />
        <path
           id="path1258-62-6"
           style="display:inline;fill:#000000;stroke:none;stroke-width:0.0235873;stroke-linecap:butt;stroke-linejoin:miter;stroke-miterlimit:4;stroke-dasharray:none;stroke-opacity:1"
           d="m 170.42386,187.61823 -1.06254,1.23063 h 0.61203 v 2.36937 c 0.0222,0.83561 0.36873,1.3091 1.38856,1.31826 v 0 c 0.0161,1.3e-4 0.0324,8e-5 0.0486,0 l -0.005,-0.45114 c -0.73417,0.0217 -0.96994,-0.16732 -0.98134,-0.86712 v -2.36937 h 1.29294 v -0.45114 h -1.29294 z"
           sodipodi:nodetypes="ccccsscccccccc" />
        <path
           id="path1258-62-6-1"
           style="display:inline;fill:#000000;stroke:none;stroke-width:0.0235873;stroke-linecap:butt;stroke-linejoin:miter;stroke-miterlimit:4;stroke-dasharray:none;stroke-opacity:1"
           d="m 144.43172,187.61823 -1.06254,1.23063 h 0.61203 v 2.36937 c 0.0222,0.83561 0.36873,1.30911 1.38856,1.31826 v 0 c 0.0161,1.4e-4 0.0324,8e-5 0.0486,0 l -0.005,-0.45114 c -0.73417,0.0217 -0.96994,-0.16732 -0.98134,-0.86712 v -2.36937 h 1.29294 v -0.45114 h -1.29294 z"
           sodipodi:nodetypes="ccccsscccccccc" />
        <path
           id="path3505"
           style="display:inline;fill:#000000;stroke:none;stroke-width:0.0235873;stroke-linecap:butt;stroke-linejoin:miter;stroke-miterlimit:4;stroke-dasharray:none;stroke-opacity:1"
           d="m 176.80704,188.39779 c -1.20671,0.007 -2.15736,0.94874 -2.1394,2.07118 0.018,1.12244 0.92872,2.06362 2.1394,2.06759 1.2107,0.004 2.14873,-0.94409 2.15336,-2.06759 0.005,-1.1235 -0.94662,-2.07843 -2.15336,-2.07118 z m 0,0.43201 c 0.9702,-0.005 1.71495,0.74536 1.70844,1.63917 -0.007,0.89382 -0.72099,1.63814 -1.70844,1.63918 -0.98743,0 -1.70731,-0.75589 -1.70789,-1.63918 0,-0.88326 0.73771,-1.6338 1.70789,-1.63917 z" />
        <path
           id="path9879"
           style="display:inline;fill:#000000;stroke:none;stroke-width:0.0235873;stroke-linecap:butt;stroke-linejoin:miter;stroke-miterlimit:4;stroke-dasharray:none;stroke-opacity:1"
           d="m 184.5983,188.39775 c -1.20671,0.007 -2.15736,0.94875 -2.13939,2.07119 0.018,1.12247 0.92871,2.06359 2.13939,2.06758 0.46464,0.003 0.88913,-0.13705 1.23611,-0.37208 l -0.22868,-0.35348 c -0.26977,0.17647 -0.63902,0.29678 -1.00743,0.29715 -0.59772,0 -1.09744,-0.27686 -1.39888,-0.69141 l 3.13129,-2.14627 c -0.58372,-0.76004 -1.10995,-0.87331 -1.73241,-0.87268 z m 0,0.43201 c 0.39145,-0.003 0.74639,0.11875 1.02992,0.32248 0.0135,0.01 0.0266,0.0198 0.0398,0.03 l -2.6815,1.83345 c -0.0623,-0.17211 -0.096,-0.3565 -0.0961,-0.54673 0,-0.88326 0.73774,-1.6338 1.70791,-1.63918 z"
           sodipodi:nodetypes="csccccccccscccc" />
        <path
           id="path9879-3"
           style="display:inline;fill:#000000;stroke:none;stroke-width:0.0235873;stroke-linecap:butt;stroke-linejoin:miter;stroke-miterlimit:4;stroke-dasharray:none;stroke-opacity:1"
           d="m 148.4856,188.39774 c -1.20671,0.007 -2.15735,0.94875 -2.13939,2.07119 0.018,1.12247 0.92871,2.06359 2.13939,2.06759 0.46464,0.003 0.88914,-0.13706 1.23611,-0.37209 l -0.22868,-0.35348 c -0.26977,0.17648 -0.63902,0.29678 -1.00743,0.29715 -0.59772,0 -1.09743,-0.27686 -1.39887,-0.69141 l 3.13129,-2.14627 c -0.58373,-0.76004 -1.10996,-0.87331 -1.73242,-0.87268 z m 0,0.43202 c 0.39146,-0.003 0.74639,0.11874 1.02992,0.32247 0.0135,0.01 0.0267,0.0198 0.0398,0.03 l -2.6815,1.83345 c -0.0623,-0.17211 -0.096,-0.35649 -0.0961,-0.54673 0,-0.88326 0.73774,-1.6338 1.70791,-1.63917 z"
           sodipodi:nodetypes="csccccccccscccc" />
        <path
           id="path3505-8"
           style="display:inline;fill:#000000;stroke:none;stroke-width:0.0235873;stroke-linecap:butt;stroke-linejoin:miter;stroke-miterlimit:4;stroke-dasharray:none;stroke-opacity:1"
           d="m 190.63205,186.95187 v 2.24536 c -0.39156,-0.48596 -1.00381,-0.80365 -1.70172,-0.79944 -1.20669,0.007 -2.15736,0.94874 -2.1394,2.07118 0.018,1.12244 0.92872,2.06362 2.1394,2.06759 1.2107,0.004 2.14873,-0.94409 2.15336,-2.06759 0,-1.16999 0,-2.34497 0,-3.5165 z m -1.70172,1.87793 c 1.0465,0.01 1.7105,0.69937 1.70172,1.63917 -0.009,0.9398 -0.80627,1.645 -1.70172,1.63918 -0.89546,-0.006 -1.7076,-0.75589 -1.70789,-1.63918 0,-0.88328 0.66138,-1.64891 1.70789,-1.63917 z"
           sodipodi:nodetypes="cccssccczzzzz" />
        <path
           id="path3505-7"
           style="display:inline;fill:#000000;stroke:none;stroke-width:0.0235873;stroke-linecap:butt;stroke-linejoin:miter;stroke-miterlimit:4;stroke-dasharray:none;stroke-opacity:1"
           d="m 162.88098,188.39779 c -1.20671,0.007 -2.15736,0.94874 -2.1394,2.07118 0.018,1.12244 0.92872,2.06362 2.1394,2.06759 1.2107,0.004 2.14873,-0.94409 2.15336,-2.06759 0.005,-1.1235 -0.94662,-2.07843 -2.15336,-2.07118 z m 0,0.43201 c 0.9702,-0.005 1.71495,0.74536 1.70844,1.63917 -0.007,0.89382 -0.72099,1.63814 -1.70844,1.63918 -0.98743,0 -1.70731,-0.75589 -1.70789,-1.63918 0,-0.88326 0.73771,-1.6338 1.70789,-1.63917 z" />
        <path
           id="path3505-9"
           style="display:inline;fill:#000000;stroke:none;stroke-width:0.0235873;stroke-linecap:butt;stroke-linejoin:miter;stroke-miterlimit:4;stroke-dasharray:none;stroke-opacity:1"
           d="m 125.80229,188.39779 c -1.20671,0.007 -2.15736,0.94875 -2.13939,2.07119 0.018,1.12244 0.92871,2.06362 2.13939,2.06758 1.21071,0.004 2.14874,-0.94408 2.15337,-2.06758 0.005,-1.1235 -0.94663,-2.07844 -2.15337,-2.07119 z m 0,0.43202 c 0.9702,-0.005 1.71495,0.74535 1.70845,1.63917 -0.007,0.89381 -0.72099,1.63814 -1.70845,1.63917 -0.98742,0 -1.7073,-0.75589 -1.70788,-1.63917 0,-0.88326 0.73771,-1.6338 1.70788,-1.63917 z" />
        <path
           style="display:inline;fill:#000000;stroke:none;stroke-width:0.0235873;stroke-linecap:butt;stroke-linejoin:miter;stroke-miterlimit:4;stroke-dasharray:none;stroke-opacity:1"
           d="m 181.17091,186.95169 v 5.58488 h 0.4514 v -5.58488 z"
           id="path1258-6"
           sodipodi:nodetypes="ccccc" />
        <path
           id="path1258-6-5"
           style="display:inline;fill:#000000;stroke:none;stroke-width:0.0235873;stroke-linecap:butt;stroke-linejoin:miter;stroke-miterlimit:4;stroke-dasharray:none;stroke-opacity:1"
           d="m 174.09868,188.33784 c -1.02023,0.009 -1.36691,0.4825 -1.38906,1.31826 0,0.96015 0,1.92032 0,2.88047 h 0.45112 v -2.88047 c 0.0114,-0.69979 0.24717,-0.88892 0.98134,-0.86711 l 0.005,-0.45115 c -0.0164,-8e-5 -0.0329,-1.3e-4 -0.0491,0 z"
           sodipodi:nodetypes="ccccccccc" />
        <path
           id="path1258-6-5-2"
           style="display:inline;fill:#000000;stroke:none;stroke-width:0.0235873;stroke-linecap:butt;stroke-linejoin:miter;stroke-miterlimit:4;stroke-dasharray:none;stroke-opacity:1"
           d="m 152.31904,188.33785 c -1.02023,0.009 -1.36692,0.48249 -1.38906,1.31826 0,0.96014 0,1.92032 0,2.88046 h 0.45111 v -2.88046 c 0.0114,-0.6998 0.24718,-0.88892 0.98134,-0.86712 l 0.005,-0.45114 c -0.0164,-8e-5 -0.0329,-1.4e-4 -0.0491,0 z"
           sodipodi:nodetypes="ccccccccc" />
        <path
           style="display:inline;fill:#000000;stroke:none;stroke-width:0.0235873;stroke-linecap:butt;stroke-linejoin:miter;stroke-miterlimit:4;stroke-dasharray:none;stroke-opacity:1"
           d="m 123.11107,187.1524 c -1.40106,-0.91798 -4.22974,0.12476 -4.2181,2.56348 0.0116,2.43871 2.82197,3.33898 4.2181,2.53155 l -0.24152,-0.37988 c -1.28812,0.70399 -3.54758,-0.21257 -3.52518,-2.15167 0.0224,-1.9391 2.33935,-2.97707 3.52139,-2.18684 z"
           id="path1258-6-5-7"
           sodipodi:nodetypes="czcczcc" />
        <path
           style="display:inline;fill:#000000;stroke:none;stroke-width:0.0235873;stroke-linecap:butt;stroke-linejoin:miter;stroke-miterlimit:4;stroke-dasharray:none;stroke-opacity:1"
           d="m 160.08451,187.1524 c -1.40106,-0.91798 -4.22974,0.12476 -4.2181,2.56348 0.0116,2.43871 2.82197,3.33898 4.2181,2.53155 l -0.24152,-0.37988 c -1.28812,0.70399 -3.54757,-0.21257 -3.52517,-2.15167 0.0224,-1.9391 2.33935,-2.97707 3.52139,-2.18684 z"
           id="path1258-6-5-7-5"
           sodipodi:nodetypes="czcczcc" />
        <path
           id="path1258-6-56"
           style="display:inline;fill:#000000;stroke:none;stroke-width:0.0235873;stroke-linecap:butt;stroke-linejoin:miter;stroke-miterlimit:4;stroke-dasharray:none;stroke-opacity:1"
           d="m 167.21745,188.3978 c -0.94951,-0.006 -1.46957,0.81325 -1.47537,1.3498 v 2.78897 h 0.45165 v -2.78897 c -0.003,-0.2675 0.37272,-0.88749 1.02372,-0.894 0.65101,-0.007 1.02717,0.60981 1.02423,0.894 v 2.78897 h 0.45114 v -2.78897 c 0.0132,-0.53425 -0.52586,-1.34387 -1.47537,-1.3498 z"
           sodipodi:nodetypes="ccccccccccc" />
        <path
           id="path1258-6-56-3"
           style="display:inline;fill:#000000;stroke:none;stroke-width:0.0235873;stroke-linecap:butt;stroke-linejoin:miter;stroke-miterlimit:4;stroke-dasharray:none;stroke-opacity:1"
           d="m 141.1301,192.53654 c -0.94951,0.006 -1.46958,-0.81325 -1.47537,-1.34979 v -2.78898 h 0.45164 v 2.78898 c -0.003,0.26749 0.37272,0.88749 1.02373,0.894 0.651,0.007 1.02716,-0.60982 1.02422,-0.894 v -2.78898 h 0.45114 v 2.78898 c 0.0132,0.53424 -0.52585,1.34387 -1.47536,1.34979 z" />
        <path
           id="path1258-6-56-9"
           style="display:inline;fill:#000000;stroke:none;stroke-width:0.0235873;stroke-linecap:butt;stroke-linejoin:miter;stroke-miterlimit:4;stroke-dasharray:none;stroke-opacity:1"
           d="m 130.11377,188.3978 c -0.94951,-0.006 -1.46958,0.81325 -1.47537,1.3498 v 2.78897 h 0.45114 v -2.78897 l -1.8e-4,-0.006 c -0.003,-0.2675 0.3734,-0.88109 1.02441,-0.8876 0.6378,-0.007 1.01158,0.58468 1.02372,0.8759 -2.1e-4,0.006 0,0.0122 0,0.018 v 0 2.78902 h 0.45165 v -2.78897 c 2.1e-4,-0.008 0,-0.0169 0,-0.0254 2e-5,0 -3e-5,0 0,0 0.0209,-0.27956 0.39253,-0.86133 1.0232,-0.86765 0.651,-0.007 1.02666,0.60981 1.02372,0.894 v 0 2.78802 h 0.45114 v -2.78897 c 0.0132,-0.53425 -0.52583,-1.34387 -1.47537,-1.3498 -0.58544,-0.004 -1.0079,0.30623 -1.24695,0.67024 -0.24067,-0.35986 -0.669,-0.66659 -1.25212,-0.67024 z"
           sodipodi:nodetypes="sccccccccccccscccccccscs" />
        <path
           id="path3505-8-2"
           style="display:inline;fill:#000000;stroke:none;stroke-width:0.0235873;stroke-linecap:butt;stroke-linejoin:miter;stroke-miterlimit:4;stroke-dasharray:none;stroke-opacity:1"
           d="m 135.1781,193.98245 v -2.24536 c 0.39156,0.48596 1.0038,0.80365 1.70172,0.79944 1.20669,-0.007 2.15736,-0.94874 2.1394,-2.07119 -0.018,-1.12244 -0.92872,-2.06361 -2.1394,-2.06758 -1.2107,-0.004 -2.14873,0.94408 -2.15336,2.06758 0,1.16999 0,2.34498 0,3.5165 z m 1.70172,-1.87793 c -1.0465,-0.01 -1.7105,-0.69938 -1.70172,-1.63918 0.009,-0.9398 0.80627,-1.64499 1.70172,-1.63917 0.89546,0.006 1.7076,0.75589 1.70789,1.63917 0,0.88329 -0.66138,1.64891 -1.70789,1.63918 z"
           sodipodi:nodetypes="cccssccczzzzz" />
        <path
           style="display:inline;fill:#000000;stroke:none;stroke-width:0.0235873;stroke-linecap:butt;stroke-linejoin:miter;stroke-miterlimit:4;stroke-dasharray:none;stroke-opacity:1"
           d="m 191.06629,181.53367 c -0.0266,-0.99907 -0.74974,-1.72444 -1.20425,-1.72415 0.4325,-0.001 0.62724,-0.8475 0.63063,-1.23225 0.0154,-1.74745 -1.19168,-2.09537 -2.17741,-2.09916 -1.26405,-0.005 -2.13246,0.6849 -2.09705,1.9579 h 0.8686 c -7.1e-4,-0.8806 0.67425,-1.1539 1.24607,-1.16313 0.90266,-0.0146 1.38645,0.60393 1.39594,1.30407 0.007,0.51894 -0.14936,1.24196 -0.82785,1.23257 0.65553,0.0449 1.31782,0.9999 1.3131,1.71844 -0.009,1.36159 -1.00589,1.70207 -1.90297,1.71855 -0.96243,0.0177 -1.76018,-0.56141 -1.77391,-1.98099 l -0.93306,-0.0129 c -0.0443,2.24023 1.25563,2.86716 2.70284,2.89489 1.42915,0.0274 2.80812,-0.78458 2.75932,-2.61384 z"
           id="path15425"
           sodipodi:nodetypes="scssccsscssccss" />
        <path
           id="path1630"
           style="display:inline;fill:#000000;stroke:none;stroke-width:0.0235873;stroke-linecap:butt;stroke-linejoin:miter;stroke-miterlimit:4;stroke-dasharray:none;stroke-opacity:1"
           d="m 161.1124,176.47601 v 0.90228 h 1.78491 v 6.77063 h 0.90225 v -6.77063 h 1.78491 v -0.90228 z" />
        <path
           style="display:inline;fill:#000000;stroke:none;stroke-width:0.0235873;stroke-linecap:butt;stroke-linejoin:miter;stroke-miterlimit:4;stroke-dasharray:none;stroke-opacity:1"
           d="m 172.80075,179.2418 v 0.8686 h 4.99552 v -0.8686 z"
           id="path2313"
           sodipodi:nodetypes="ccccc" />
        <path
           id="path22428"
           style="display:inline;fill:#000000;stroke:none;stroke-width:0.0235873;stroke-linecap:butt;stroke-linejoin:miter;stroke-miterlimit:4;stroke-dasharray:none;stroke-opacity:1"
           d="m 182.16588,176.47601 c -1.23288,0.009 -2.71632,1.15017 -2.69492,2.48668 0,0.90004 0,1.80004 0,2.70008 -0.0214,1.33651 1.46204,2.47753 2.69492,2.48668 1.23288,0.009 2.69153,-1.11231 2.69544,-2.48668 0,-0.90004 0,-1.80004 0,-2.70008 -0.004,-1.37438 -1.46256,-2.49568 -2.69544,-2.48668 z m 0,0.86868 c 0.81663,-0.003 1.83676,0.68545 1.82676,1.618 0,0.90004 0,1.80004 0,2.70008 0.0101,0.93255 -1.01013,1.61959 -1.82676,1.618 -0.81664,-0.003 -1.80269,-0.72366 -1.82624,-1.618 0,-0.90004 0,-1.80004 0,-2.70008 0.0236,-0.89434 1.0096,-1.61499 1.82624,-1.618 z"
           sodipodi:nodetypes="cccccccccccccc" />
        <path
           id="path3201"
           style="display:inline;fill:#000000;stroke:none;stroke-width:0.0235873;stroke-linecap:butt;stroke-linejoin:miter;stroke-miterlimit:4;stroke-dasharray:none;stroke-opacity:1"
           d="m 166.85468,176.47601 v 0.86868 5.90198 0.83611 0.0661 h 2.40768 c 0.44384,0.0246 1.92495,-0.82126 1.95958,-2.61527 0.0196,-1.011 -0.70709,-1.7262 -1.26619,-1.72384 0.55677,0.003 0.69223,-0.84781 0.69258,-1.23256 0,-1.32152 -0.90144,-2.10384 -1.38597,-2.10116 z m 0.90228,0.86868 h 1.29966 c 0.42378,-0.005 0.81598,0.71371 0.82786,1.23256 0.0119,0.51885 -0.14936,1.24195 -0.82786,1.23256 0.65553,0.0449 1.30614,0.98383 1.3131,1.71844 0.007,0.73459 -0.81992,1.72 -1.3131,1.71842 h -1.29966 z"
           sodipodi:nodetypes="ccccccscscccczczccc" />
      </g>
    </g>
  </g>
</svg>
