<?xml version="1.0" encoding="UTF-8" standalone="no"?>
<!-- Created with Inkscape (http://www.inkscape.org/) -->

<svg
   width="297mm"
   height="210mm"
   viewBox="0 0 297 210"
   version="1.1"
   id="svg5"
   inkscape:version="1.2.2 (b0a8486541, 2022-12-01)"
   sodipodi:docname="performve.svg"
   xmlns:inkscape="http://www.inkscape.org/namespaces/inkscape"
   xmlns:sodipodi="http://sodipodi.sourceforge.net/DTD/sodipodi-0.dtd"
   xmlns="http://www.w3.org/2000/svg"
   xmlns:svg="http://www.w3.org/2000/svg">
  <sodipodi:namedview
     id="namedview7"
     pagecolor="#ffffff"
     bordercolor="#666666"
     borderopacity="1.0"
     inkscape:pageshadow="2"
     inkscape:pageopacity="0.0"
     inkscape:pagecheckerboard="0"
     inkscape:document-units="mm"
     showgrid="true"
     inkscape:zoom="0.5"
     inkscape:cx="240"
     inkscape:cy="651"
     inkscape:window-width="1920"
     inkscape:window-height="1052"
     inkscape:window-x="1920"
     inkscape:window-y="0"
     inkscape:window-maximized="1"
     inkscape:current-layer="layer3"
     inkscape:snap-global="true"
     inkscape:snap-nodes="false"
     inkscape:snap-others="false"
     inkscape:showpageshadow="2"
     inkscape:deskcolor="#d1d1d1">
    <inkscape:grid
       type="xygrid"
       id="grid19261" />
  </sodipodi:namedview>
  <defs
     id="defs2" />
  <g
     inkscape:groupmode="layer"
     id="layer3"
     inkscape:label="background"
     style="display:inline"
     sodipodi:insensitive="true">
    <rect
       style="display:inline;fill:#f4d23c;fill-opacity:1;stroke:none;stroke-width:0.799999"
       id="rect101984"
       width="284.28696"
       height="193.87642"
       x="6.5699286"
       y="8.4798727"
       rx="12.127643"
       ry="13.390247" />
  </g>
  <g
     inkscape:groupmode="layer"
     id="layer2"
     inkscape:label="logo"
     style="display:inline"
     sodipodi:insensitive="true">
    <g
       id="g42958"
       transform="matrix(1.6721285,0,0,1.6721285,-254.16947,-288.42669)"
       style="fill:#000000;stroke-width:0.59804">
      <path
         id="path12826-7"
         style="display:inline;fill:#000000;stroke:none;stroke-width:0.59804px;stroke-linecap:butt;stroke-linejoin:miter;stroke-opacity:1"
         d="m 816.29492,942.02344 v 37.06445 h 3.89649 v -16.77344 h 28.61914 v -3.89648 h -28.61914 v -12.49805 h 30.61914 v -3.89648 z"
         transform="scale(0.26458333)"
         sodipodi:nodetypes="ccccccccccc" />
      <path
         id="path12826-7-3"
         style="display:inline;fill:#000000;stroke:none;stroke-width:0.59804px;stroke-linecap:butt;stroke-linejoin:miter;stroke-opacity:1"
         d="m 967.25195,942.02344 v 37.06445 h 3.89649 v -34.66406 l 23.75195,34.66406 h 2.72461 0.61133 l 23.59177,-34.42969 v 34.42969 h 3.8965 v -37.06445 h -2.0918 -1.8047 -2.9199 l -22.34179,32.60351 -22.33985,-32.60351 h -3.07812 z"
         transform="scale(0.26458333)" />
      <path
         id="path12826-6-5"
         style="display:inline;fill:#000000;stroke:none;stroke-width:0.158231px;stroke-linecap:butt;stroke-linejoin:miter;stroke-opacity:1"
         d="m 229.63404,249.24394 c -1.5057,0.0143 -2.48657,1.05361 -2.4846,2.63653 v 4.53306 0.0238 h 5.3e-4 c 0.008,1.59452 1.01716,2.63185 2.55592,2.61328 h 7.43727 c 1.54642,0.0187 2.55843,-1.02901 2.55643,-2.63705 v -4.53307 c 0.002,-1.60803 -1.01001,-2.6552 -2.55643,-2.63653 h -7.43727 -0.0718 z m 0.0532,1.03094 h 7.47448 c 0.9356,0.007 1.50331,0.71655 1.50688,1.59577 v 4.55321 c -0.004,0.87922 -0.57128,1.58877 -1.50688,1.59577 h -7.47448 c -0.9356,-0.007 -1.50331,-0.71655 -1.50689,-1.59577 v -4.55321 c 0.004,-0.87922 0.57129,-1.58877 1.50689,-1.59577 z"
         sodipodi:nodetypes="scccccccccccsccccccccc" />
      <path
         id="path12826-2"
         style="display:inline;fill:#000000;stroke:none;stroke-width:0.158231px;stroke-linecap:butt;stroke-linejoin:miter;stroke-opacity:1"
         d="m 202.2379,249.24394 v 9.80664 h 1.03094 v -3.83853 h 7.26416 c 0.9356,0.007 1.50331,0.71655 1.50688,1.59577 v 2.24276 h 1.03095 v -2.23243 c 0.001,-0.92456 -0.33294,-1.66352 -0.91106,-2.12131 0.55172,-0.43689 0.88105,-1.13027 0.90899,-1.99626 h 0.002 v -0.12506 -0.82011 h -0.002 c -0.0496,-1.53679 -1.04855,-2.52966 -2.55437,-2.51147 h -7.24555 z m 1.03094,1.03094 h 7.26416 c 0.9356,0.007 1.50331,0.71655 1.50688,1.59577 v 0.71469 c -0.004,0.87922 -0.57128,1.58877 -1.50688,1.59577 h -0.0186 -7.24556 z"
         sodipodi:nodetypes="cccccccccccccccccccccccccc" />
      <path
         id="path12826-2-7"
         style="display:inline;fill:#000000;stroke:none;stroke-width:0.158231px;stroke-linecap:butt;stroke-linejoin:miter;stroke-opacity:1"
         d="m 242.38795,249.24394 v 9.80664 h 1.03094 v -3.83853 h 7.26416 c 0.9356,0.007 1.50331,0.71655 1.50688,1.59577 v 2.24276 h 1.03095 v -2.23242 c 0.001,-0.92457 -0.33294,-1.66353 -0.91106,-2.12132 0.55172,-0.43689 0.88105,-1.13027 0.90899,-1.99626 h 0.002 v -0.12506 -0.8201 h -0.002 c -0.0496,-1.5368 -1.04856,-2.52967 -2.55437,-2.51148 h -7.24555 z m 1.03094,1.03095 h 7.26416 c 0.9356,0.007 1.50331,0.71655 1.50688,1.59576 v 0.71469 c -0.004,0.87922 -0.57128,1.58877 -1.50688,1.59577 h -0.0186 -7.24555 z"
         sodipodi:nodetypes="cccccccccccccccccccccccccc" />
      <path
         id="path12826-61"
         style="display:inline;fill:#000000;stroke:none;stroke-width:0.158231px;stroke-linecap:butt;stroke-linejoin:miter;stroke-opacity:1"
         d="m 177.565,249.24394 v 1.03095 3.90622 1.03094 3.83853 h 1.03094 v -3.83853 h 7.24556 c 1.50581,0.0182 2.50478,-0.97467 2.55436,-2.51147 h 0.002 v -0.12506 -0.8201 h -0.002 c -0.0496,-1.53681 -1.04856,-2.52966 -2.55436,-2.51148 h -7.24556 z m 1.03094,1.03095 h 7.26416 c 0.9356,0.007 1.50333,0.71655 1.50689,1.59576 v 0.71469 c -0.004,0.87922 -0.57129,1.58877 -1.50689,1.59577 h -7.26416 z"
         sodipodi:nodetypes="ccccccccccccccccccccccc" />
      <path
         id="path12826-7-8"
         style="display:inline;fill:#000000;stroke:none;stroke-width:0.158231px;stroke-linecap:butt;stroke-linejoin:miter;stroke-opacity:1"
         d="m 190.45427,249.2437 v 9.80664 h 9.13226 v -1.03095 h -8.10132 v -3.40703 h 7.57215 v -1.03094 h -7.57215 v -3.30678 h 8.10132 v -1.03094 z"
         sodipodi:nodetypes="ccccccccccccc" />
      <path
         id="rect21485"
         style="fill:#000000;stroke:none;stroke-width:0.0986766"
         d="m 293.95364,249.2437 v 10.75955 h 10.36164 v -2.31252 h -8.04913 v -1.94975 h 7.7923 v -2.31253 h -7.7923 v -1.87223 h 8.04913 v -2.31252 z"
         sodipodi:nodetypes="ccccccccccccc" />
      <path
         id="rect21485-5"
         style="display:inline;fill:#000000;stroke:none;stroke-width:0.0986766"
         d="m 280.58443,249.2437 5.31387,10.75955 h 0.1044 2.20813 0.10438 l 5.31389,-10.75955 h -2.31251 l -4.20957,8.52402 -4.20955,-8.52402 z" />
      <circle
         style="fill:#000000;fill-opacity:1;stroke:none;stroke-width:0.0986766"
         id="path22794"
         cx="276.64334"
         cy="253.8394"
         r="1.4994452" />
    </g>
    <g
       id="g43188"
       transform="matrix(1.1478662,0,0,1.1478662,20.716631,-5.6213429)"
       style="stroke-width:0.871182">
      <rect
         style="fill:#000000;fill-opacity:1;stroke:none;stroke-width:0.143744"
         id="rect14034"
         width="0.075239755"
         height="6.8044095"
         x="27.69919"
         y="-105.75935"
         transform="matrix(0.70710678,-0.70710678,-0.70710678,-0.70710678,0,0)" />
      <path
         id="path25779"
         style="fill:#000000;stroke:none;stroke-width:0.2305px;stroke-linecap:butt;stroke-linejoin:miter;stroke-opacity:1"
         d="m 83.336935,58.718463 v 16.357132 h 3.026688 v -6.826449 h 11.970846 v 6.826449 h 3.026171 V 58.718463 h -3.026171 v 6.798551 H 86.363623 v -6.798551 z"
         sodipodi:nodetypes="ccccccccccccc" />
      <path
         id="path25779-7"
         style="display:inline;fill:#000000;stroke:none;stroke-width:0.2305px;stroke-linecap:butt;stroke-linejoin:miter;stroke-opacity:1"
         d="m 44.618886,58.718463 v 2.732133 h 7.992793 v 13.625528 h 3.026172 V 61.450596 h 7.041946 c -0.633561,1.806175 -1.083749,3.62722 -1.065567,5.46995 -0.01066,1.896079 0.47054,3.768879 1.136364,5.626529 0.589428,1.569389 1.818979,2.562545 3.223059,2.52852 H 77.592066 V 72.34347 H 67.02837 c -0.805276,-0.0821 -1.330143,-0.372943 -1.546675,-1.062985 -0.444297,-1.432329 -0.804238,-2.861315 -0.83561,-4.327384 0.06411,-1.86785 0.566449,-3.67428 1.17874,-5.50199 h 11.767241 v -2.732648 z"
         sodipodi:nodetypes="ccccccccccccccccccc" />
      <path
         id="path25779-0"
         style="display:inline;fill:#000000;stroke:none;stroke-width:0.2305px;stroke-linecap:butt;stroke-linejoin:miter;stroke-opacity:1"
         d="m 103.81217,58.718463 v 14.919502 c 0.0363,0.791382 0.36131,1.405059 1.31413,1.43763 h 16.70957 v -2.732641 h -14.99753 v -4.093808 h 12.54807 v -2.732132 h -12.54807 v -4.066418 h 14.99753 v -2.732133 z"
         sodipodi:nodetypes="cccccccccccccc" />
      <path
         id="path25779-0-2"
         style="display:inline;fill:#000000;stroke:none;stroke-width:0.2305px;stroke-linecap:butt;stroke-linejoin:miter;stroke-opacity:1"
         d="m 123.62292,58.71846 v 14.91933 c 0.0363,0.79138 0.36152,1.40523 1.31434,1.4378 h 13.53437 V 72.34295 H 126.64909 V 58.71846 Z"
         sodipodi:nodetypes="cccccccc" />
      <path
         style="display:inline;fill:#000000;stroke:none;stroke-width:0.2305px;stroke-linecap:butt;stroke-linejoin:miter;stroke-opacity:1"
         d="m 140.3758,58.71861 h 3.02656 v 16.35698 h -3.02656 z"
         id="path25779-3-0"
         sodipodi:nodetypes="ccccc" />
      <path
         id="path25779-3-0-4"
         style="display:inline;fill:#000000;stroke:none;stroke-width:0.2305px;stroke-linecap:butt;stroke-linejoin:miter;stroke-opacity:1"
         d="m 147.48444,58.718463 c -1.13461,2.719591 -2.17323,5.464821 -2.13062,8.260477 -5.3e-4,1.875996 0.4764,3.729701 1.13533,5.568135 0.58943,1.569379 1.81898,2.562545 3.22306,2.52852 h 13.66687 V 72.34347 h -12.61215 c -0.80528,-0.08207 -1.33015,-0.372943 -1.54668,-1.062985 -0.44925,-1.448302 -0.80981,-2.893718 -0.83406,-4.376994 0.0712,-1.850247 0.57032,-3.640846 1.17719,-5.45238 h 13.8157 v -2.732648 z"
         sodipodi:nodetypes="ccccccccccccc" />
      <path
         id="path25779-3-0-6"
         style="display:inline;fill:#000000;stroke:none;stroke-width:0.2305px;stroke-linecap:butt;stroke-linejoin:miter;stroke-opacity:1"
         d="m 185.91258,58.718463 v 16.357132 h 3.02669 V 62.50841 l 11.6055,12.567185 h 3.63543 V 58.718463 h -3.02669 V 71.286171 L 189.54854,58.718463 Z"
         sodipodi:nodetypes="ccccccccccc" />
      <path
         id="path25779-3-0-4-5-4"
         style="display:inline;fill:#000000;stroke:none;stroke-width:0.2305px;stroke-linecap:butt;stroke-linejoin:miter;stroke-opacity:1"
         d="m 166.55718,58.717945 c -1.1267,2.700631 -2.15904,5.426622 -2.13165,8.202083 -0.0107,1.896081 0.47054,3.768881 1.13636,5.626531 0.58943,1.569389 1.81898,2.562558 3.22306,2.528533 h 10.46396 c 1.40408,0.03402 2.63363,-0.959144 3.22306,-2.528533 0.66582,-1.85765 1.14702,-3.73045 1.13636,-5.626531 0.0274,-2.775461 -1.00495,-5.501452 -2.13165,-8.202083 z m 2.07894,2.732651 h 10.76162 c 0.61229,1.827709 1.11463,3.634139 1.17874,5.501989 -0.0314,1.466069 -0.39132,2.895055 -0.83561,4.327384 -0.21653,0.690039 -0.7414,0.980885 -1.54668,1.062985 h -8.35452 c -0.80528,-0.0821 -1.33015,-0.372946 -1.54668,-1.062985 -0.4443,-1.432329 -0.80424,-2.861315 -0.83561,-4.327384 0.0641,-1.86785 0.56645,-3.67428 1.17874,-5.501989 z"
         sodipodi:nodetypes="cccccccccccccccccc" />
      <circle
         style="fill:#000000;fill-opacity:1;stroke:none;stroke-width:0.143745"
         id="path37477"
         cx="79.2883"
         cy="66.88298"
         r="1.5979015" />
      <path
         id="path39258"
         style="fill:#000000;stroke:none;stroke-width:0.2305px;stroke-linecap:butt;stroke-linejoin:miter;stroke-opacity:1"
         d="m 27.568248,57.722656 -7.31325,6.99389 c 3.835913,-2.03872 8.469558,-0.914352 11.920201,5.125268 0.252338,0.441661 0.779521,0.597918 0.792202,0.338997 0.0787,-1.60691 -1.717545,-3.891172 -3.139345,-5.613612 2.148631,1.47057 4.031779,2.718734 4.413168,5.172295 0.07787,0.500941 0.789065,0.748752 0.788064,0.330213 -0.0067,-2.799011 -1.518988,-5.307785 -3.485057,-7.468796 2.836371,1.889641 4.168399,3.501001 4.492234,6.140712 0.08427,0.68693 0.824457,0.840145 0.851625,0.438216 0.186401,-2.75749 -1.178412,-5.823653 -3.596677,-8.101314 2.801252,1.541979 4.040499,3.529288 4.547007,6.289538 0.08201,0.44691 0.655614,0.70331 0.797367,0.33383 0.675859,-1.761591 -1.740845,-10.014937 -11.067539,-9.979237 z m -2.818435,7.680153 c -0.08036,0.0038 -0.13453,0.04414 -0.138493,0.125055 -0.0787,1.60691 1.717545,3.891688 3.139345,5.614128 -2.148631,-1.47057 -4.031779,-2.71925 -4.413168,-5.172811 -0.07787,-0.500938 -0.789065,-0.748752 -0.788064,-0.33021 0.0067,2.799008 1.518988,5.307782 3.485057,7.468793 -2.836371,-1.889641 -4.168399,-3.501001 -4.492234,-6.140709 -0.08427,-0.68693 -0.824457,-0.840148 -0.851625,-0.438216 -0.186401,2.75749 1.178412,5.823653 3.596677,8.101314 -2.801252,-1.541981 -4.040499,-3.528772 -4.547007,-6.289022 -0.08201,-0.44691 -0.655614,-0.703828 -0.797367,-0.334348 -0.675859,1.76159 1.740845,10.014947 11.067539,9.979228 l 7.31325,-6.993363 C 33.48781,73.031368 28.854165,71.906482 25.403522,65.866862 25.23004,65.563221 24.9266,65.394512 24.749813,65.402809 Z" />
    </g>
  </g>
</svg>
